<svg width="197" height="197" viewBox="0 0 197 197" fill="none" xmlns="http://www.w3.org/2000/svg">
<path d="M98.4945 94.2322C88.2801 94.2322 79.9683 85.9203 79.9683 75.7059C79.9683 65.4916 88.2801 57.1797 98.4945 57.1797C108.709 57.1797 117.021 65.4916 117.021 75.7059C117.021 85.9203 108.709 94.2322 98.4945 94.2322ZM98.4945 61.3382C90.5725 61.3382 84.1268 67.7839 84.1268 75.7059C84.1268 83.6279 90.5725 90.0737 98.4945 90.0737C106.417 90.0737 112.862 83.6279 112.862 75.7059C112.862 67.7839 106.417 61.3382 98.4945 61.3382Z" fill="#FFECB7"/>
<path d="M130.474 140.168C129.325 140.168 128.394 139.238 128.394 138.089C128.394 121.601 114.983 108.189 98.4944 108.189C82.0058 108.189 68.5946 121.601 68.5946 138.089C68.5946 139.238 67.6641 140.168 66.5153 140.168C65.3665 140.168 64.436 139.238 64.436 138.089C64.436 119.308 79.7134 104.031 98.4944 104.031C117.275 104.031 132.553 119.308 132.553 138.089C132.553 139.238 131.622 140.168 130.474 140.168Z" fill="#FFECB7"/>
<path d="M168.81 135.511C167.662 135.511 166.731 134.58 166.731 133.432C166.731 120.483 156.194 109.946 143.246 109.946C139.337 109.946 135.464 110.924 132.054 112.779C131.046 113.325 129.783 112.956 129.237 111.942C128.691 110.934 129.06 109.671 130.074 109.125C134.092 106.942 138.651 105.788 143.251 105.788C158.492 105.788 170.895 118.191 170.895 133.432C170.895 134.58 169.964 135.511 168.816 135.511H168.81Z" fill="#FFECB7"/>
<path d="M142.435 99.0405C133.374 99.0405 126.003 91.6695 126.003 82.6091C126.003 73.5487 133.374 66.1777 142.435 66.1777C151.495 66.1777 158.866 73.5487 158.866 82.6091C158.866 91.6695 151.495 99.0405 142.435 99.0405ZM142.435 70.3363C135.667 70.3363 130.162 75.8411 130.162 82.6091C130.162 89.3771 135.667 94.882 142.435 94.882C149.203 94.882 154.708 89.3771 154.708 82.6091C154.708 75.8411 149.203 70.3363 142.435 70.3363Z" fill="#FFECB7"/>
<path d="M28.1789 135.511C27.0301 135.511 26.0996 134.58 26.0996 133.432C26.0996 118.191 38.5024 105.788 53.7434 105.788C58.3438 105.788 62.9026 106.942 66.9208 109.125C67.9292 109.671 68.3035 110.934 67.7525 111.942C67.2067 112.951 65.9435 113.325 64.9351 112.774C61.5251 110.918 57.6525 109.941 53.7434 109.941C40.7948 109.941 30.2581 120.478 30.2581 133.426C30.2581 134.575 29.3277 135.506 28.1789 135.506V135.511Z" fill="#FFECB7"/>
<path d="M54.5491 99.0405C45.4887 99.0405 38.1177 91.6695 38.1177 82.6091C38.1177 73.5487 45.4887 66.1777 54.5491 66.1777C63.6095 66.1777 70.9805 73.5487 70.9805 82.6091C70.9805 91.6695 63.6095 99.0405 54.5491 99.0405ZM54.5491 70.3363C47.7811 70.3363 42.2762 75.8411 42.2762 82.6091C42.2762 89.3771 47.7811 94.882 54.5491 94.882C61.3171 94.882 66.8219 89.3771 66.8219 82.6091C66.8219 75.8411 61.3171 70.3363 54.5491 70.3363Z" fill="#FFECB7"/>
<path d="M4.63156 122.734C3.6907 122.734 2.833 122.089 2.60948 121.128C0.87849 113.757 4.58614e-07 106.141 4.58614e-07 98.5C-0.0051977 44.1844 44.1792 0 98.4948 0C124.803 0 149.541 10.2456 168.145 28.8498C168.956 29.6607 168.956 30.9759 168.145 31.792C167.334 32.6029 166.014 32.6029 165.203 31.792C147.384 13.9727 123.696 4.15853 98.4948 4.15853C46.4768 4.15853 4.15333 46.482 4.15333 98.5C4.15333 105.824 4.99544 113.117 6.65365 120.176C6.91876 121.294 6.2222 122.412 5.1046 122.677C4.94345 122.713 4.78231 122.734 4.62637 122.734H4.63156Z" fill="#FFECB7"/>
<path d="M98.4949 197C72.4365 197 47.8752 186.926 29.3281 168.628C28.512 167.823 28.5016 166.508 29.3073 165.686C30.113 164.87 31.4282 164.86 32.2495 165.665C50.0116 183.188 73.5385 192.836 98.4949 192.836C150.513 192.836 192.836 150.513 192.836 98.4948C192.836 92.0907 192.192 85.6917 190.918 79.4799C190.689 78.3571 191.412 77.2551 192.54 77.0264C193.668 76.7977 194.765 77.5202 194.994 78.6482C196.319 85.1355 196.995 91.8152 196.995 98.4948C196.995 152.805 152.81 196.995 98.4949 196.995V197Z" fill="#FFECB7"/>
<path d="M166.668 32.4001C165.603 32.4001 164.698 31.5892 164.6 30.508L163.222 15.111C163.118 13.9674 163.965 12.959 165.109 12.855C166.258 12.7563 167.261 13.5984 167.365 14.742L168.742 30.1389C168.846 31.2825 167.999 32.291 166.856 32.3949C166.793 32.4001 166.731 32.4053 166.668 32.4053V32.4001Z" fill="#FFECB7"/>
<path d="M152.124 33.0759C151.022 33.0759 150.102 32.2078 150.05 31.0954C149.998 29.9466 150.882 28.9746 152.031 28.9226L166.58 28.2416C167.734 28.1844 168.701 29.0733 168.753 30.2221C168.805 31.3709 167.921 32.343 166.773 32.395L152.223 33.0759C152.192 33.0759 152.155 33.0759 152.124 33.0759Z" fill="#FFECB7"/>
<path d="M32.1035 184.504C31.0378 184.504 30.1333 183.693 30.0346 182.612L28.6571 167.215C28.5531 166.071 29.4004 165.063 30.544 164.959C31.6876 164.855 32.696 165.702 32.8 166.846L34.1775 182.242C34.2815 183.386 33.4342 184.395 32.2906 184.498C32.2282 184.504 32.1658 184.509 32.1035 184.509V184.504Z" fill="#FFECB7"/>
<path d="M30.7261 169.107C29.6241 169.107 28.7041 168.239 28.6521 167.126C28.6001 165.977 29.4838 165.005 30.6326 164.953L45.1822 164.272C46.331 164.22 47.3031 165.104 47.3551 166.253C47.4071 167.402 46.5234 168.374 45.3746 168.426L30.8249 169.107C30.7937 169.107 30.7573 169.107 30.7261 169.107Z" fill="#FFECB7"/>
</svg>
