<svg xmlns="http://www.w3.org/2000/svg" fill="none" viewBox="0 0 204 55"><path fill="#069" d="M71.916 24.947v-7.835h-2.22a.57.57 0 0 1-.409-.174.55.55 0 0 1-.181-.413v-.599q-.002-.245.181-.412a.6.6 0 0 1 .41-.175h6.377a.57.57 0 0 1 .41.175.57.57 0 0 1 .181.412v.599a.53.53 0 0 1-.181.413.58.58 0 0 1-.41.174h-2.22v7.835a.55.55 0 0 1-.175.412.57.57 0 0 1-.416.175h-.75a.56.56 0 0 1-.415-.175.53.53 0 0 1-.182-.412m5.787 0v-9.02q-.001-.246.182-.413a.58.58 0 0 1 .41-.175h3.694c1.066 0 1.915.285 2.536.855.62.57.93 1.307.93 2.226q.002.644-.18 1.174c-.124.354-.247.627-.381.813a2.2 2.2 0 0 1-.556.535q-.353.253-.504.314c-.1.04-.24.099-.41.163l1.932 3.452q.16.288.065.47c-.065.123-.193.187-.398.187h-.955c-.404 0-.69-.174-.867-.517l-1.715-3.238H79.64v3.168a.53.53 0 0 1-.181.413.58.58 0 0 1-.41.174h-.75a.57.57 0 0 1-.41-.174.5.5 0 0 1-.187-.407m1.932-4.853h2.108c.498 0 .908-.134 1.219-.407.31-.274.468-.645.468-1.122s-.164-.854-.498-1.122c-.334-.267-.826-.407-1.481-.407h-1.82v3.058zm6.799 5.44a.45.45 0 0 1-.363-.157q-.13-.157-.04-.401l3.056-9.079a.82.82 0 0 1 .305-.4.8.8 0 0 1 .474-.158h1.066q.262 0 .474.157a.82.82 0 0 1 .304.401l3.057 9.079c.058.163.04.296-.041.4a.44.44 0 0 1-.363.158h-.837q-.608 0-.768-.558l-.415-1.418h-3.894l-.416 1.418q-.16.558-.767.558zm2.542-3.668h2.857L90.421 17.2h-.03zm6.978 3.081v-9.02q0-.246.176-.413a.6.6 0 0 1 .415-.175h.592q.362 0 .539.105.184.106.351.395l4.011 6.76h.029v-6.673q0-.245.176-.412a.6.6 0 0 1 .416-.175h.579q.248 0 .416.175a.56.56 0 0 1 .17.412v9.02a.56.56 0 0 1-.17.413.57.57 0 0 1-.416.175h-.591q-.359 0-.55-.122a1.2 1.2 0 0 1-.346-.378l-4.01-6.76h-.03v6.673a.55.55 0 0 1-.176.412.57.57 0 0 1-.416.175h-.58a.56.56 0 0 1-.415-.175.56.56 0 0 1-.17-.412m9.253-.843a.5.5 0 0 1-.129-.36q-.002-.272.217-.413l.679-.488a.68.68 0 0 1 .416-.157q.228 0 .474.244 1.035 1.088 2.729 1.087.85 0 1.516-.314c.445-.21.662-.54.662-.988q0-.542-.492-.814c-.492-.272-.872-.36-1.633-.529l-1.142-.256a9 9 0 0 1-1.189-.342 4.2 4.2 0 0 1-.96-.512 2 2 0 0 1-.697-.825 2.7 2.7 0 0 1-.24-1.174q-.002-1.508 1.2-2.343 1.197-.836 2.787-.836c1.599 0 2.899.534 3.912 1.604a.5.5 0 0 1 .146.36.5.5 0 0 1-.216.43l-.633.47q-.22.158-.404.158-.218-.001-.445-.256-.836-.987-2.365-.988-.87-.001-1.406.302c-.363.198-.538.477-.538.831 0 .372.175.646.521.814q.516.261 1.604.488l1.253.273a6.6 6.6 0 0 1 1.119.332q.466.184.925.5.455.315.691.83.239.517.24 1.216-.002.888-.398 1.569a2.83 2.83 0 0 1-1.06 1.052c-.445.25-.92.43-1.429.552a7 7 0 0 1-1.616.18 6 6 0 0 1-2.243-.436 5.1 5.1 0 0 1-1.856-1.261m9.924.843v-9.02q-.002-.246.181-.413a.58.58 0 0 1 .41-.175h5.569a.57.57 0 0 1 .41.175.55.55 0 0 1 .181.412v.599a.53.53 0 0 1-.181.413.58.58 0 0 1-.41.174h-4.228v2.435h3.625a.57.57 0 0 1 .41.175.55.55 0 0 1 .181.412v.517a.53.53 0 0 1-.181.413.58.58 0 0 1-.41.174h-3.625v3.709a.53.53 0 0 1-.181.412.58.58 0 0 1-.41.175h-.75a.57.57 0 0 1-.41-.175.53.53 0 0 1-.181-.412m8.72-.715c-.902-1.04-1.347-2.308-1.347-3.796q.002-2.232 1.347-3.795c.896-1.04 2.09-1.563 3.572-1.563q2.22.002 3.572 1.563c.901 1.04 1.346 2.308 1.346 3.796q-.002 2.232-1.346 3.795-1.352 1.562-3.572 1.563-2.222-.002-3.572-1.563m1.411-1.267q.737 1.053 2.166 1.052 1.43.001 2.167-1.052.738-1.054.738-2.529 0-1.473-.738-2.528-.736-1.053-2.167-1.052-1.43-.001-2.166 1.052-.738 1.055-.738 2.528 0 1.475.738 2.529m8.585 1.982v-9.02q-.002-.246.181-.413a.58.58 0 0 1 .41-.175h3.695c1.066 0 1.915.285 2.535.855s.932 1.307.932 2.226q.001.644-.182 1.174c-.123.354-.246.627-.381.813a2.2 2.2 0 0 1-.556.535q-.353.253-.504.314c-.099.04-.24.099-.409.163l1.932 3.452q.16.288.064.47c-.064.123-.193.187-.398.187h-.954q-.605-.001-.867-.517l-1.716-3.238h-1.844v3.168a.53.53 0 0 1-.182.413.58.58 0 0 1-.41.174h-.749a.57.57 0 0 1-.41-.174.5.5 0 0 1-.187-.407m1.932-4.853h2.108c.498 0 .908-.134 1.218-.407.31-.274.468-.645.468-1.122s-.163-.854-.497-1.122c-.334-.267-.826-.407-1.482-.407h-1.821v3.058zm7.155 4.853v-9.02q-.002-.246.181-.413a.58.58 0 0 1 .41-.175h1.774q.344-.001.492.128.15.13.229.442l1.762 7.335 1.763-7.335q.13-.576.72-.575h1.686a.57.57 0 0 1 .41.174.55.55 0 0 1 .182.413v9.02a.53.53 0 0 1-.182.413.58.58 0 0 1-.41.174h-.661a.57.57 0 0 1-.41-.174.55.55 0 0 1-.182-.413v-7.922h-.029l-1.891 7.934a.74.74 0 0 1-.258.406.7.7 0 0 1-.463.163h-.632a.7.7 0 0 1-.463-.163.7.7 0 0 1-.257-.407l-1.892-7.933h-.029v7.922a.53.53 0 0 1-.182.413.58.58 0 0 1-.409.174h-.662a.57.57 0 0 1-.41-.174.52.52 0 0 1-.187-.407m11.125.587a.45.45 0 0 1-.363-.157q-.13-.157-.041-.401l3.057-9.079a.83.83 0 0 1 .304-.4.8.8 0 0 1 .475-.158h1.065q.264 0 .475.157a.82.82 0 0 1 .304.401l3.057 9.079c.058.163.041.296-.041.4a.44.44 0 0 1-.363.158h-.838q-.607 0-.767-.558l-.415-1.418h-3.894l-.416 1.418q-.16.558-.767.558zm2.542-3.668h2.857l-1.411-4.667h-.029zm7.817 3.081v-7.835h-2.219a.57.57 0 0 1-.41-.174.55.55 0 0 1-.182-.413v-.599q-.001-.245.182-.412a.6.6 0 0 1 .41-.175h6.377c.152 0 .292.058.409.175a.57.57 0 0 1 .182.412v.599a.53.53 0 0 1-.182.413.58.58 0 0 1-.409.174h-2.22v7.835a.55.55 0 0 1-.175.412.57.57 0 0 1-.416.175h-.75a.55.55 0 0 1-.415-.175.53.53 0 0 1-.182-.412m5.892 0v-9.02q0-.246.175-.413a.56.56 0 0 1 .416-.175h.75q.247 0 .415.175a.6.6 0 0 1 .176.412v9.02a.55.55 0 0 1-.176.413.57.57 0 0 1-.415.175h-.75a.56.56 0 0 1-.416-.175.55.55 0 0 1-.175-.412m4.883-.715c-.901-1.04-1.346-2.308-1.346-3.796q.002-2.232 1.346-3.795c.896-1.04 2.091-1.563 3.572-1.563q2.222.002 3.572 1.563c.902 1.04 1.347 2.308 1.347 3.796q-.001 2.232-1.347 3.795-1.35 1.562-3.572 1.563c-1.481 0-2.676-.523-3.572-1.563m1.406-1.267q.736 1.053 2.166 1.052 1.43.001 2.167-1.052.738-1.054.738-2.529 0-1.473-.738-2.528-.736-1.053-2.167-1.052-1.43-.001-2.166 1.052-.738 1.055-.738 2.528c.006.983.246 1.826.738 2.529m8.66 1.982v-9.02q0-.246.175-.413a.6.6 0 0 1 .416-.175h.592q.361 0 .538.105.184.106.352.395l4.011 6.76h.029v-6.673q0-.245.176-.412a.6.6 0 0 1 .415-.175h.58q.248 0 .416.175a.56.56 0 0 1 .17.412v9.02a.56.56 0 0 1-.17.413.57.57 0 0 1-.416.175h-.591q-.359 0-.551-.122a1.2 1.2 0 0 1-.345-.378l-4.011-6.76h-.03v6.673a.55.55 0 0 1-.175.412.57.57 0 0 1-.416.175h-.58a.55.55 0 0 1-.415-.175.54.54 0 0 1-.17-.412m9.245-.843a.5.5 0 0 1-.129-.36q-.002-.272.217-.413l.679-.488a.68.68 0 0 1 .416-.157q.228 0 .474.244 1.035 1.088 2.729 1.087.85 0 1.516-.314c.445-.21.662-.54.662-.988q0-.542-.492-.814c-.492-.272-.872-.36-1.634-.529l-1.141-.256a9 9 0 0 1-1.189-.342 4.2 4.2 0 0 1-.96-.512 2 2 0 0 1-.697-.825 2.7 2.7 0 0 1-.24-1.174q-.001-1.508 1.2-2.343 1.195-.836 2.787-.836c1.599 0 2.899.534 3.912 1.604a.5.5 0 0 1 .146.36.5.5 0 0 1-.216.43l-.633.47q-.22.158-.404.158-.218-.001-.445-.256-.836-.987-2.366-.988-.869-.001-1.405.302c-.363.198-.539.477-.539.831 0 .372.176.646.522.814q.516.261 1.604.488l1.253.273q.651.14 1.118.332.468.184.926.5.455.315.691.83.238.517.24 1.216-.002.888-.398 1.569a2.83 2.83 0 0 1-1.06 1.052c-.445.25-.92.43-1.429.552q-.764.181-1.616.18a6 6 0 0 1-2.243-.436 5.1 5.1 0 0 1-1.856-1.261M69.222 38.192l2.482-6.44a.38.38 0 0 1 .158-.209.5.5 0 0 1 .258-.081h.38c.094 0 .182.03.258.081a.35.35 0 0 1 .158.21l2.343 6.44q.061.154-.006.25c-.047.063-.117.087-.223.087h-.398q-.246 0-.351-.297l-.662-1.866h-2.7l-.708 1.878c-.082.192-.199.29-.363.29h-.398q-.16 0-.223-.087c-.047-.07-.047-.151-.005-.256m1.99-2.644h2.12l-1.03-2.93zm7.76 2.674V31.77a.3.3 0 0 1 .088-.22.28.28 0 0 1 .222-.088h2.377c1.049 0 1.833.32 2.36.959q.79.96.79 2.615 0 1.577-.807 2.535c-.54.639-1.318.959-2.343.959h-2.377a.32.32 0 0 1-.222-.088.28.28 0 0 1-.088-.22m.937-.506H81.5q2.292-.001 2.29-2.767c0-.843-.182-1.493-.539-1.964s-.92-.703-1.669-.703h-1.669v5.434zm5.61.476 2.483-6.44a.38.38 0 0 1 .158-.209.5.5 0 0 1 .257-.081h.381c.094 0 .181.03.258.081a.35.35 0 0 1 .158.21l2.342 6.44q.061.154-.006.25c-.047.063-.117.087-.222.087h-.399q-.246 0-.35-.297l-.663-1.866h-2.7l-.708 1.878c-.082.192-.199.29-.363.29h-.398q-.159 0-.222-.087c-.041-.07-.041-.151-.006-.256m1.99-2.644h2.12l-1.03-2.93zm4.983 2.674V31.77a.3.3 0 0 1 .088-.22.28.28 0 0 1 .222-.088h2.91q.45 0 .838.093.386.096.726.314.341.216.533.633.193.419.193.994c0 .32-.047.605-.146.866q-.148.391-.533.703c-.258.21-.58.343-.978.402l1.657 2.592c.082.133.117.22.117.267q0 .2-.35.198h-.3a.53.53 0 0 1-.48-.256l-1.75-2.737h-1.822v2.69a.3.3 0 0 1-.088.221.28.28 0 0 1-.222.087h-.322a.32.32 0 0 1-.222-.087c-.065-.058-.07-.133-.07-.22m.937-3.505h2.132q.719 0 1.112-.28c.258-.185.392-.499.392-.94 0-.815-.497-1.221-1.499-1.221h-2.131v2.44zm5.843 3.505V31.77a.3.3 0 0 1 .088-.22.28.28 0 0 1 .223-.088h.322c.088 0 .158.03.222.087a.28.28 0 0 1 .088.221v6.451a.3.3 0 0 1-.088.221.28.28 0 0 1-.222.087h-.322a.32.32 0 0 1-.223-.087.28.28 0 0 1-.088-.22m1.98-.03 2.482-6.44a.38.38 0 0 1 .159-.209.5.5 0 0 1 .257-.081h.381c.094 0 .181.03.257.081a.35.35 0 0 1 .159.21l2.342 6.44q.063.154-.006.25c-.047.063-.117.087-.223.087h-.398q-.246 0-.351-.297l-.662-1.866h-2.699l-.709 1.878c-.082.192-.199.29-.363.29h-.398q-.159 0-.222-.087c-.047-.07-.047-.151-.006-.256m1.991-2.644h2.119l-1.03-2.93zm4.976 2.674V31.77c0-.087.029-.157.088-.22a.28.28 0 0 1 .222-.088h.322c.088 0 .158.03.223.087a.28.28 0 0 1 .087.221v2.691h3.918V31.77c0-.087.029-.157.088-.22a.28.28 0 0 1 .222-.088h.322c.088 0 .158.03.223.087a.28.28 0 0 1 .088.221v6.451c0 .088-.03.157-.088.221a.28.28 0 0 1-.223.087h-.322a.3.3 0 0 1-.222-.087.28.28 0 0 1-.088-.22v-2.947h-3.918v2.947a.3.3 0 0 1-.087.22.28.28 0 0 1-.223.087h-.322a.3.3 0 0 1-.222-.087.28.28 0 0 1-.088-.22m9.458.04v-.21c0-.22.088-.325.269-.325q.07-.002.228.024.16.024.328.023.666-.001.902-.325.228-.325.228-1.006V31.77a.3.3 0 0 1 .088-.22.3.3 0 0 1 .223-.088h.322c.088 0 .158.03.222.087a.28.28 0 0 1 .088.221V37c0 .477-.17.879-.497 1.21q-.5.495-1.441.494-.517 0-.738-.105a.35.35 0 0 1-.222-.337m4.689-.314q-.633-.699-.633-1.79 0-1.09.633-1.79.63-.697 1.71-.697 1.079 0 1.709.697.633.7.633 1.79 0 1.092-.633 1.79-.63.698-1.709.698t-1.71-.698m.316-2.417a3.1 3.1 0 0 0 0 1.255q.063.296.222.593c.106.197.258.349.457.465q.298.174.72.174.423 0 .721-.174a1.2 1.2 0 0 0 .456-.465c.106-.198.176-.39.223-.593a3.1 3.1 0 0 0 0-1.255 2.2 2.2 0 0 0-.223-.593 1.16 1.16 0 0 0-.456-.465 1.4 1.4 0 0 0-.721-.175q-.422 0-.72.175a1.2 1.2 0 0 0-.457.465 2.5 2.5 0 0 0-.222.593m4.71 1.377v-2.819c0-.087.029-.157.087-.22a.3.3 0 0 1 .223-.088h.199c.088 0 .158.03.223.087a.28.28 0 0 1 .087.221v2.819q-.001.488.27.732c.181.163.427.25.738.25.38 0 .685-.116.925-.343q.359-.34.357-.906v-2.552c0-.087.029-.157.088-.22a.28.28 0 0 1 .222-.088h.199c.088 0 .158.03.223.087a.28.28 0 0 1 .088.221v4.127a.3.3 0 0 1-.088.22.3.3 0 0 1-.223.088h-.199a.3.3 0 0 1-.222-.087.28.28 0 0 1-.088-.221v-.326h-.018q-.51.757-1.399.756c-1.13 0-1.692-.576-1.692-1.738m5.186 1.314v-4.127a.3.3 0 0 1 .088-.221.28.28 0 0 1 .222-.087h.2c.087 0 .158.029.222.087a.28.28 0 0 1 .088.22v.506h.017q.501-.855 1.458-.854.23-.002.229.198v.366q0 .2-.123.244a1.4 1.4 0 0 1-.428.046q-.55 0-.854.402a1.4 1.4 0 0 0-.305.866v2.353a.3.3 0 0 1-.088.221.28.28 0 0 1-.222.087h-.199a.32.32 0 0 1-.223-.087c-.064-.058-.082-.133-.082-.22m3.332 0v-4.127a.3.3 0 0 1 .088-.221.28.28 0 0 1 .222-.087h.2c.087 0 .158.029.222.087a.28.28 0 0 1 .088.22v.326h.017q.512-.756 1.4-.755c1.124 0 1.692.581 1.692 1.738v2.819a.3.3 0 0 1-.088.22.28.28 0 0 1-.222.087h-.199a.32.32 0 0 1-.223-.087.28.28 0 0 1-.088-.22v-2.738q0-.583-.263-.825c-.176-.163-.428-.239-.744-.239q-.572.002-.925.343c-.234.227-.357.53-.357.907v2.551a.3.3 0 0 1-.088.221.28.28 0 0 1-.222.087h-.2a.32.32 0 0 1-.222-.087.28.28 0 0 1-.088-.22m4.838-.884c0-.256.047-.482.146-.663.1-.18.229-.337.393-.453q.246-.172.667-.29a5.4 5.4 0 0 1 .861-.163q.44-.052 1.089-.087v-.419c0-.343-.088-.593-.257-.738-.17-.151-.457-.22-.867-.22-.521 0-.832.22-.943.662q-.069.297-.339.29l-.211-.011q-.334-.018-.229-.436.272-1.142 1.728-1.14.272.001.509.03c.158.017.328.064.51.128q.27.096.462.255.192.155.322.425.123.27.123.627v2.244q.001.495.363.494h.071q.168.001.169.22v.18q0 .297-.509.297-.362 0-.556-.157c-.129-.104-.223-.273-.276-.494q-.677.733-1.698.733-.642-.002-1.083-.378c-.293-.256-.445-.564-.445-.936m.884-.052q.002.4.275.558.274.163.645.162.587 0 .972-.33.378-.334.38-.92v-.545l-.638.093c-.152.023-.334.058-.533.098a2.1 2.1 0 0 0-.796.32.56.56 0 0 0-.229.244.6.6 0 0 0-.076.32m4.444.936V31.77c0-.087.029-.157.088-.22a.28.28 0 0 1 .222-.088h.2a.32.32 0 0 1 .222.087.28.28 0 0 1 .088.221v6.451a.3.3 0 0 1-.088.221.28.28 0 0 1-.222.087h-.2a.32.32 0 0 1-.222-.087.28.28 0 0 1-.088-.22"/><path fill="url(#a)" d="M42.544 20.235c-6.633 0-12.03 3.071-12.034 6.847 1.419-2.907 7.011-4.13 13.092-2.713 4.552 1.058 8.195 3.322 9.727 5.746.797-.916 1.245-1.944 1.245-3.033.004-3.771-5.393-6.847-12.03-6.847"/><path fill="url(#b)" d="M53.264 30.326c-.017-.026-.03-.051-.048-.077-1.484-2.398-5.114-4.649-9.653-5.707a22 22 0 0 0-4.949-.588c-4.074 0-7.286 1.305-8.082 3.53q-.034.098-.061.194c-.013.048-.03.1-.04.147l.053-.06c.026-.03.052-.056.078-.087 2.028-2.039 7.495-1.698 12.957.964 2.324 1.131 4.37 2.54 5.915 4.056q.035.031.07.07.033.03.06.064c.344.346.666.7.954 1.054a9.2 9.2 0 0 1 1.244 1.94c1.132-.657 1.859-1.52 2.098-2.536.222-.937.013-1.922-.548-2.886z"/><path fill="url(#c)" d="m51.641 35.986-.035-.078c-.283-.614-.692-1.257-1.232-1.918-.3-.367-.63-.735-.992-1.093l-.065-.065-.07-.07c-1.523-1.48-3.534-2.863-5.81-3.974-3.099-1.507-6.193-2.272-8.64-2.272-1.884 0-3.381.454-4.2 1.365q-.037.041-.07.082c-.02.03-.047.056-.069.087l-.091.13-.105.168a1 1 0 0 0-.082.164l.078-.052.091-.047q.091-.051.183-.095l.079-.035c.026-.013.052-.021.082-.035.975-.371 2.355-.32 4.044.173 2.385.7 5.092 2.2 7.625 4.217q.765.61 1.47 1.252c.031.026.062.057.088.082q.046.038.087.083a24.7 24.7 0 0 1 2.825 3.067l.06.082q.031.038.062.082a16 16 0 0 1 1.2 1.832q.498.895.767 1.693c1.388-.26 2.411-.86 2.881-1.81.405-.82.357-1.827-.117-2.938-.018-.021-.03-.052-.044-.077"/><path fill="url(#d)" d="m48.772 40.923-.026-.082a10 10 0 0 0-.744-1.637 17 17 0 0 0-1.254-1.9c-.021-.031-.043-.057-.065-.087l-.065-.082a25 25 0 0 0-2.855-3.063l-.092-.082-.091-.082q-.64-.577-1.332-1.128c-2.516-2.004-5.205-3.49-7.564-4.186-.94-.276-1.785-.415-2.507-.415q-.824.002-1.432.238-.038.02-.083.034c-.026.014-.052.022-.078.035a3 3 0 0 0-.24.13q-.046.025-.087.052l-.091.064q-.06.045-.113.091c-.048.039-.087.082-.13.125q-.061.058-.114.121c-.022.03-.035.052-.052.074l.039-.013c.03-.009.065-.013.096-.022a1 1 0 0 1 .091-.021 3 3 0 0 1 .305-.04h.087a3 3 0 0 1 .566.035q.053.006.104.017c.805.139 1.763.54 2.83 1.197 1.227.756 2.52 1.797 3.794 3.041l.127.126c.039.039.078.073.113.112.792.795 1.58 1.668 2.328 2.596.092.113.183.23.274.342q.046.055.087.112l.087.112a30.5 30.5 0 0 1 2.442 3.65l.061.104c.017.035.04.065.057.1.848 1.533 1.44 2.98 1.736 4.216 1.689.29 2.942.022 3.591-.782.561-.695.631-1.745.218-3.032a.3.3 0 0 0-.018-.07"/><path fill="url(#e)" d="M44.843 44.876c-.009-.03-.013-.06-.022-.09-.309-1.236-.918-2.692-1.793-4.239q-.028-.052-.061-.103-.031-.052-.06-.108a31 31 0 0 0-2.49-3.66q-.047-.055-.087-.111c-.031-.04-.061-.074-.088-.113q-.065-.085-.13-.164a33 33 0 0 0-2.529-2.79q-.06-.06-.122-.117c-.043-.044-.087-.082-.126-.126-1.193-1.14-2.398-2.1-3.547-2.803-.988-.61-1.876-.994-2.624-1.15a1 1 0 0 0-.114-.017 1 1 0 0 0-.108-.017 3 3 0 0 0-.488-.043l-.052.004-.087.004c-.044.002-.061.005-.092.005-.1.008-.191.026-.282.047-.031.009-.061.013-.092.022a1 1 0 0 0-.091.03q-.086.031-.166.07c-.048.02-.091.047-.135.073a2 2 0 0 0-.13.082q-.014.01-.035.021c-.04.03-.07.065-.105.1l.096.004q.045-.001.092.004l.087.013q.136.02.278.065l.092.026c.026.009.056.022.087.03.178.065.36.156.552.264.044.026.087.047.131.073l.13.082c.566.367 1.189.907 1.855 1.62a22 22 0 0 1 1.928 2.415 35 35 0 0 1 2.054 3.33l.078.148q.038.076.083.151.302.564.592 1.153c.51 1.033.966 2.065 1.358 3.072.017.047.04.09.056.138l.053.138c.653 1.715 1.127 3.348 1.366 4.778q.032.18.057.359c1.797 1.037 3.308 1.34 4.152.665.71-.566.844-1.732.496-3.248-.004-.026-.013-.057-.017-.087"/><path fill="url(#f)" d="M40.029 47.537a1 1 0 0 0-.018-.103c-.009-.07-.022-.139-.03-.212-.253-1.482-.749-3.184-1.44-4.964-.018-.047-.04-.095-.057-.142-.018-.048-.04-.095-.057-.139a40 40 0 0 0-1.99-4.237c-.025-.052-.056-.104-.082-.152-.03-.052-.056-.103-.087-.155a34 34 0 0 0-2.15-3.4c-.048-.07-.1-.138-.148-.203-.056-.078-.113-.147-.17-.225-.448-.596-.9-1.14-1.349-1.62a11 11 0 0 0-1.558-1.412c-.052-.04-.1-.07-.152-.104-.052-.035-.1-.07-.153-.1a4 4 0 0 0-.744-.38 2.2 2.2 0 0 0-.427-.112l-.086-.013q-.045-.005-.092-.004c-.017 0-.035-.005-.052-.005-.057 0-.109.01-.161.018q-.059.005-.118.017-.07.02-.135.048c-.026.008-.052.013-.073.026-.061.03-.118.069-.175.108.048.017.1.038.148.064q.04.021.079.044a2.6 2.6 0 0 1 .483.371c.03.026.056.056.087.082 1.036 1.033 2.193 3.292 3.199 6.26l.074.216c.022.069.048.142.07.212a48 48 0 0 1 1.07 3.823 72 72 0 0 1 .227.998l.039.181c.491 2.333.774 4.489.844 6.277 1.789 2.164 3.456 3.3 4.452 2.812.766-.371 1.032-1.74.749-3.775-.004-.03-.013-.065-.017-.1"/><path fill="url(#g)" d="M34.65 48.488c0-.044-.005-.091-.005-.139-.091-1.827-.383-4.013-.883-6.315l-.04-.19a3 3 0 0 0-.043-.19q-.051-.238-.109-.476a45 45 0 0 0-1.21-4.216l-.078-.23c-.026-.077-.057-.155-.083-.232-.914-2.575-1.945-4.597-2.855-5.608q-.043-.052-.096-.1l-.091-.094a2.6 2.6 0 0 0-.383-.316l-.074-.047q-.039-.025-.078-.043a1.2 1.2 0 0 0-.235-.087l-.096-.017-.087-.008a.64.64 0 0 0-.427.155c.061.06.127.134.188.216l.06.09.053.083c.139.237.27.54.391.894q.06.175.118.363c.165.54.309 1.184.44 1.896q.046.255.086.514c.236 1.474.4 3.215.484 5.033a5 5 0 0 1 .008.26l.013.263a59 59 0 0 1-.17 7.34c1.385 3.845 3.013 6.424 4.11 6.169.848-.2 1.222-2.074 1.118-4.804-.022-.052-.022-.108-.026-.164"/><path fill="url(#h)" d="m29.409 39.485-.013-.285-.013-.273c-.21-3.892-.766-6.739-1.398-7.97l-.052-.095c-.021-.034-.039-.073-.06-.108a1.5 1.5 0 0 0-.231-.298l-.061-.056-.07-.048a.4.4 0 0 0-.213-.064.4.4 0 0 0-.213.064q.116.13.213.311c.017.03.035.056.048.091.017.03.03.07.048.104q.176.39.287.941c.03.147.056.307.078.467.061.44.1.938.113 1.482.005.212.01.428.005.648-.013 1.417-.179 3.102-.488 4.95q-.02.137-.048.273l-.043.255a50 50 0 0 1-.548 2.64 45 45 0 0 1-1.415 4.833c.374 4.22 1.188 6.822 1.963 6.822s1.589-2.601 1.963-6.822c.009-.073.013-.147.021-.22.005-.074.014-.151.018-.23.113-1.403.174-2.971.174-4.673a77 77 0 0 0-.065-2.74"/><path fill="url(#i)" d="M27.198 39.342c.017-.095.03-.185.048-.28.017-.104.03-.204.048-.303.518-3.43.518-6.298 0-7.685a1 1 0 0 0-.048-.121c-.017-.04-.03-.07-.048-.104a1.5 1.5 0 0 0-.252-.393q-.031-.034-.061-.06-.033-.032-.066-.057a.8.8 0 0 0-.274-.138 1 1 0 0 0-.13-.013 1.8 1.8 0 0 1 .256.471l.04.1c.104.297.165.656.195 1.067q.014.224.014.47 0 .635-.105 1.404-.031.239-.074.484l-.026.134c-.274 1.542-.805 3.305-1.54 5.15l-.097.241q-.044.116-.095.238a39 39 0 0 1-1.075 2.367c-1.21 2.446-2.599 4.649-3.983 6.33-.104 2.738.27 4.622 1.119 4.82 1.092.26 2.724-2.324 4.108-6.169q.032-.094.07-.19l.07-.198a45 45 0 0 0 1.28-4.424 48 48 0 0 0 .626-3.14"/><path fill="url(#j)" d="M23.747 42.228c.465-.946.883-1.888 1.253-2.812.03-.078.065-.16.096-.238q.054-.13.1-.26c.653-1.71 1.123-3.338 1.366-4.768.227-1.348.231-2.433.022-3.176-.013-.043-.022-.086-.035-.125l-.039-.108a1.7 1.7 0 0 0-.313-.536.5.5 0 0 0-.07-.069l-.074-.064a1 1 0 0 0-.17-.108c-.026-.013-.052-.018-.078-.026q.054.095.1.203.019.04.03.077c.01.026.018.056.027.082.13.385.178.847.148 1.37a8 8 0 0 1-.04.423 9.5 9.5 0 0 1-.4 1.737 9 9 0 0 1-.178.514c-.788 2.164-2.285 4.752-4.326 7.28l-.34.414q-.062.07-.122.143l-.122.142c-2.024 2.367-4.174 4.22-6.045 5.314-.287 2.034-.018 3.4.749 3.775.818.398 2.184-.341 3.756-2.026.23-.25.465-.518.696-.799.035-.039.065-.082.1-.12.035-.044.07-.083.105-.126 1.318-1.646 2.646-3.767 3.803-6.113"/><path fill="url(#k)" d="M14.567 47.434c1.885-1.132 4.057-3.046 6.094-5.478l.121-.147.127-.151.122-.147c3.586-4.437 5.497-9.033 4.787-11.128l-.026-.087q-.015-.039-.035-.078a1.6 1.6 0 0 0-.365-.535q-.052-.054-.105-.1a.1.1 0 0 0-.035-.021c.018.043.03.082.048.125q.014.04.026.086l.026.087q.07.286.083.605v.232c-.022.925-.383 2.044-1.084 3.293-.544.976-1.262 1.978-2.124 2.972q-.077.09-.16.181c-.053.056-.1.113-.153.173a28 28 0 0 1-3.364 3.15 28 28 0 0 1-2.507 1.784c-.044.026-.083.056-.126.082q-.062.038-.122.078c-2.185 1.352-4.31 2.229-6.072 2.544-.348 1.525-.213 2.696.496 3.261.845.674 2.36.372 4.153-.665.03-.017.065-.039.095-.06q.05-.026.1-.056"/><path fill="url(#l)" d="M9.671 44.807c.03-.004.057-.013.087-.017 1.772-.333 3.93-1.249 6.137-2.648.043-.026.082-.052.126-.078q.066-.04.13-.087a28 28 0 0 0 2.286-1.645 27.5 27.5 0 0 0 3.616-3.443c.053-.061.11-.122.157-.186l.17-.208a17.7 17.7 0 0 0 1.806-2.592c.636-1.136.984-2.155 1.049-3.015q.008-.072.009-.143v-.12a3 3 0 0 0-.087-.752q-.015-.045-.026-.09c-.01-.027-.014-.057-.027-.083a1.7 1.7 0 0 0-.134-.302 1 1 0 0 0-.07-.126q-.04-.062-.087-.125c-.018-.022-.03-.047-.048-.07l.013.057c.004.035.013.065.017.1.005.03.005.064.01.094.017.143.025.286.02.437q0 .045-.003.09a1 1 0 0 1-.01.096c-.078 1.093-.66 2.341-1.723 3.646-1.21 1.486-2.929 2.916-4.966 4.138-.048.03-.096.056-.148.087q-.071.043-.148.086-.84.494-1.74.929a24.6 24.6 0 0 1-4.666 1.728l-.11.026c-1.405.35-2.737.522-3.92.522-.58 0-1.128-.043-1.628-.125-.4 1.257-.353 2.32.222 3.033.67.83 1.958 1.063 3.59.786a.4.4 0 0 0 .096 0"/><path fill="url(#m)" d="m5.75 40.828.083.013c1.536.25 3.486.1 5.614-.445a1 1 0 0 0 .113-.03c.04-.009.079-.022.118-.03a25 25 0 0 0 4.357-1.646 27 27 0 0 0 1.98-1.071c.048-.03.1-.06.148-.091.052-.03.1-.065.152-.095 1.902-1.175 3.512-2.532 4.657-3.94 1.014-1.248 1.58-2.432 1.68-3.473.005-.035.005-.07.009-.1a1 1 0 0 1 .009-.095 3 3 0 0 0-.027-.544c-.004-.03-.013-.06-.017-.09-.004-.031-.013-.066-.017-.096q-.02-.098-.048-.194c-.009-.026-.013-.048-.022-.074-.017-.056-.04-.108-.06-.164q-.026-.064-.057-.13v.199c-.005.07-.014.139-.018.203-.004.044-.004.082-.013.126q-.006.046-.017.086l-.013.082a4.7 4.7 0 0 1-.244.851c-.018.043-.04.09-.057.134l-.06.143c-.419.885-1.132 1.775-2.129 2.622-.426.363-.896.713-1.401 1.041-.07.043-.135.09-.205.134q-.092.059-.191.117c-1.676 1.028-3.704 1.853-5.902 2.393-.048.013-.092.021-.14.034-.039.009-.082.022-.121.03a22.3 22.3 0 0 1-4.992.597q-.548-.001-1.075-.035-.05-.001-.1-.008a1 1 0 0 1-.096-.009 15 15 0 0 1-2.546-.389 9.6 9.6 0 0 1-2.194-.83c-.474 1.111-.522 2.117-.118 2.938.47.95 1.502 1.551 2.895 1.81.013.018.039.022.065.026"/><path fill="url(#n)" d="m2.899 35.869.074.043a9.3 9.3 0 0 0 2.163.821 14.5 14.5 0 0 0 2.624.397c.035 0 .065.005.1.005s.07.004.105.004c1.845.095 3.86-.09 5.897-.566q.104-.025.2-.052c.048-.013.092-.021.14-.034l.139-.035c2.259-.574 4.322-1.456 5.997-2.549.07-.047.14-.09.21-.138.078-.052.152-.108.23-.16.344-.242.666-.488.97-.747.871-.743 1.52-1.516 1.942-2.285.03-.056.06-.117.091-.173.026-.052.048-.104.074-.151a4.5 4.5 0 0 0 .348-1.106c.005-.03.013-.056.018-.087a.3.3 0 0 0 .004-.065q.02-.189.022-.371v-.203a4 4 0 0 0-.022-.229q-.012-.098-.03-.194c-.01-.04-.014-.074-.022-.113l-.013.065c-.009.039-.018.073-.026.112a6 6 0 0 1-.074.26c-.01.025-.018.056-.026.082l-.027.086q-.105.297-.256.588c-.01.013-.013.03-.022.043l-.026.052c-.018.03-.04.06-.057.095-1.075 1.892-3.512 3.43-6.642 4.233l-.17.044-.165.038a20.2 20.2 0 0 1-4.63.527q-.614-.001-1.215-.034c-.039-.005-.078-.005-.122-.009l-.117-.008a19.3 19.3 0 0 1-3.878-.657 17 17 0 0 1-1.51-.501q-.044-.02-.087-.035-.047-.02-.087-.034c-1.554-.631-2.843-1.465-3.748-2.433-.561.964-.77 1.953-.548 2.886.117.506.361.977.71 1.4q.53.642 1.388 1.14c.021.018.047.03.074.048"/><path fill="url(#o)" d="M1.306 30.18q.03.03.06.069c.902.98 2.203 1.823 3.787 2.453q.045.02.092.035l.087.035c.544.207 1.123.393 1.723.548 1.15.298 2.394.501 3.704.579.04.004.083.004.122.009.043.004.082.004.126.004q.51.026 1.032.026a20 20 0 0 0 4.87-.588c.056-.013.117-.03.174-.043l.17-.043c2.877-.79 5.118-2.216 6.167-3.953.017-.034.04-.065.056-.1a.1.1 0 0 1 .018-.025l.043-.073a4.2 4.2 0 0 0 .331-.774c.009-.03.018-.056.026-.086a6 6 0 0 0 .114-.467c.008-.034.008-.073.012-.112.01-.065.022-.13.027-.199.008-.069.008-.138.013-.207q.007-.09.008-.182a1 1 0 0 1-.048.091l-.052.1a6 6 0 0 1-.135.22l-.047.073q-.027.038-.053.07a5 5 0 0 1-.378.453l-.079.078-.074.073c-.792.752-1.95 1.335-3.42 1.707-1.163.293-2.455.44-3.818.44q-.072.001-.139-.004-.084.001-.17-.004-.084.001-.17-.005a22.6 22.6 0 0 1-4.513-.587 25 25 0 0 1-1.17-.303c-.04-.013-.079-.021-.118-.034a1 1 0 0 0-.118-.035c-1.897-.566-3.599-1.343-5-2.238l-.079-.051q-.037-.028-.074-.048c-1.401-.92-2.494-1.957-3.168-3.033C.448 24.965 0 25.993 0 27.082s.448 2.117 1.245 3.033c.022.021.039.043.06.065"/><path fill="url(#p)" d="m1.32 23.846.047.078c.67 1.08 1.776 2.134 3.208 3.059q.037.026.074.047.038.026.082.052c1.42.894 3.138 1.663 5.058 2.22.039.014.078.022.117.035s.079.022.122.035q.49.136.992.255c1.624.38 3.239.574 4.766.587h.353c1.288-.013 2.511-.155 3.608-.432 1.38-.35 2.476-.886 3.242-1.568l.079-.078.082-.078q.257-.253.453-.527l.052-.069a.4.4 0 0 0 .044-.073q.099-.15.178-.311a1 1 0 0 0 .048-.095q.028-.053.048-.104l.078-.194q.034-.096.061-.2c.013-.047.03-.094.04-.142l-.053.06-.078.083q-.09.09-.187.173l-.07.056-.07.052a4 4 0 0 1-.478.31c-.03.018-.057.031-.087.048s-.061.03-.092.048c-.857.419-1.98.626-3.273.626-1.305 0-2.785-.212-4.348-.635-.056-.013-.108-.03-.165-.043a3 3 0 0 1-.161-.043 25.2 25.2 0 0 1-5.31-2.225c-.035-.022-.07-.039-.104-.06l-.105-.061c-1.71-.972-3.22-2.09-4.422-3.27q-.035-.031-.07-.07-.033-.032-.06-.064a14 14 0 0 1-.954-1.054c-.544-.666-.957-1.318-1.244-1.94-1.132.657-1.859 1.52-2.098 2.536-.222.937-.013 1.922.548 2.89.013.039.03.06.048.086"/><path fill="url(#q)" d="m2.938 18.187.035.078c.283.613.692 1.257 1.232 1.918.3.367.631.734.992 1.093q.033.034.066.06l.07.07c1.218 1.188 2.746 2.307 4.478 3.274.035.022.074.039.109.06.034.022.074.04.108.061.366.199.736.393 1.119.579a25 25 0 0 0 4.274 1.624l.161.043q.088.025.178.044c2.895.738 5.467.747 7.095 0 .035-.018.07-.03.1-.048q.045-.02.091-.047.307-.161.562-.355c.021-.017.047-.034.07-.051l.065-.06q.13-.117.248-.247c.026-.026.047-.052.074-.082q.037-.045.07-.09c.03-.044.06-.083.09-.126l.105-.169c.022-.043.052-.082.07-.125l.013-.034-.079.047c-.03.017-.06.039-.09.056-.062.035-.123.06-.184.09q-.039.022-.078.035-.038.02-.083.035a3.4 3.4 0 0 1-.535.151q-.053.014-.105.022c-.034.004-.07.013-.104.017q-.347.054-.74.056c-.74 0-1.601-.138-2.555-.419-1.288-.38-2.672-.99-4.07-1.793-.047-.03-.1-.056-.147-.082a28.7 28.7 0 0 1-4.875-3.594c-.03-.026-.056-.056-.087-.082a24.5 24.5 0 0 1-2.907-3.154c-.022-.026-.04-.056-.061-.082l-.065-.086c-.927-1.24-1.598-2.44-1.963-3.52-1.393.258-2.424.859-2.895 1.81-.404.82-.356 1.827.118 2.937.004.03.017.056.03.086"/><path fill="url(#r)" d="M5.806 13.25c.009.025.018.056.026.082.37 1.075 1.054 2.285 2.002 3.533.022.03.044.056.066.087.021.026.043.056.065.082a24.5 24.5 0 0 0 2.855 3.063l.091.082c.03.026.061.056.092.082.426.38.866.756 1.332 1.127a28 28 0 0 0 3.495 2.385l.156.09c.048.027.1.057.148.087 1.297.722 2.572 1.274 3.765 1.624 1.206.355 2.246.48 3.086.38l.109-.012q.059-.006.117-.018.339-.06.631-.172c.026-.013.057-.022.083-.035s.056-.022.078-.035q.124-.058.235-.13.044-.026.087-.06l.092-.06c.039-.03.078-.065.113-.095q.065-.058.13-.121.06-.06.114-.125c.021-.026.034-.052.052-.074-.013.004-.026.004-.035.009-.03.008-.065.013-.096.021-.03.009-.06.013-.091.022-.07.013-.144.026-.218.03q-.045.006-.091.005l-.087.004-.078.004q-.191 0-.388-.026c-.035-.004-.07-.013-.104-.017q-.051-.006-.11-.017c-.804-.139-1.758-.536-2.828-1.193-1.227-.756-2.52-1.797-3.795-3.04l-.127-.126c-.039-.04-.078-.074-.113-.113a34 34 0 0 1-2.333-2.596c-.091-.112-.182-.229-.274-.341q-.046-.057-.087-.112l-.087-.113a30.5 30.5 0 0 1-2.441-3.65l-.061-.104c-.018-.034-.04-.065-.057-.1-.849-1.533-1.44-2.98-1.737-4.216a7.3 7.3 0 0 0-1.218-.116c-1.054 0-1.88.29-2.372.898-.58.713-.623 1.78-.222 3.033z"/><path fill="url(#s)" d="M9.74 9.297c.01.03.014.06.022.09.305 1.236.919 2.692 1.793 4.243.018.034.04.069.057.099q.031.052.061.108a31 31 0 0 0 2.49 3.659q.046.057.087.112c.03.04.06.074.087.113q.065.085.13.164a33 33 0 0 0 2.529 2.79l.122.117q.066.063.126.125c1.193 1.14 2.398 2.1 3.547 2.804.988.61 1.876.99 2.62 1.15q.06.014.118.02a1 1 0 0 0 .109.018q.286.045.54.039h.086q.045 0 .092-.009c.095-.008.191-.021.278-.043.03-.009.061-.013.092-.021q.045-.016.091-.03l.166-.066q.066-.03.134-.069c.048-.026.087-.06.131-.09l.035-.022c.039-.03.07-.065.104-.095l-.096-.004c-.03 0-.06-.005-.087-.005l-.087-.013a2 2 0 0 1-.278-.064q-.045-.013-.092-.03a4 4 0 0 1-.64-.294l-.13-.078-.126-.078c-.566-.367-1.193-.911-1.854-1.624a22 22 0 0 1-1.658-2.035q-.073-.098-.14-.194l-.13-.186a35 35 0 0 1-2.055-3.33l-.078-.148a36 36 0 0 1-.675-1.305 41 41 0 0 1-1.358-3.066c-.017-.048-.039-.096-.056-.139s-.03-.086-.048-.13c-.653-1.714-1.127-3.352-1.37-4.786q-.033-.179-.058-.358c-1.797-1.037-3.307-1.34-4.152-.666-.71.566-.844 1.737-.496 3.258.005.012.009.038.018.069"/><path fill="url(#t)" d="M14.55 6.631q.006.053.017.104.017.102.03.212c.253 1.481.75 3.183 1.441 4.968.018.047.04.09.057.138.018.047.04.095.057.142a39 39 0 0 0 1.984 4.23q.042.079.083.15l.087.156a34 34 0 0 0 2.15 3.4c.048.07.1.138.148.203.057.078.113.147.17.225.448.596.9 1.14 1.35 1.62a11 11 0 0 0 1.557 1.413q.076.056.152.108c.053.034.1.069.153.099.23.147.453.26.657.346q.046.02.087.034.046.019.091.03c.118.04.231.07.336.082.03.005.056.005.087.009q.045.008.091.009a1.1 1.1 0 0 0 .33-.035q.066-.018.131-.043.04-.012.079-.03a1 1 0 0 0 .17-.108l-.148-.06-.079-.044a2.5 2.5 0 0 1-.396-.285c-.03-.026-.056-.052-.087-.082l-.087-.082c-1.036-1.033-2.193-3.296-3.199-6.264l-.074-.216-.07-.212a45 45 0 0 1-1.249-4.64l-.039-.181-.039-.182c-.474-2.259-.766-4.415-.84-6.26q-.352-.426-.705-.803c-1.293-1.386-2.446-2.134-3.269-2.134q-.267 0-.487.104c-.766.371-1.032 1.74-.749 3.776q.018.058.022.103"/><path fill="url(#u)" d="M19.921 5.672c0 .048.005.095.005.147.09 1.87.4 4.048.896 6.32.013.06.026.126.04.186.012.065.03.125.043.19.035.16.074.32.109.475.352 1.495.766 2.92 1.21 4.217l.078.224q.04.119.083.238c.914 2.575 1.945 4.6 2.855 5.611.03.035.06.065.091.1l.091.095c.131.13.262.229.383.31l.075.048q.039.025.078.044.119.06.23.086.054.012.1.017a1 1 0 0 0 .11.009.63.63 0 0 0 .405-.156 1.4 1.4 0 0 1-.188-.22c-.017-.026-.04-.056-.056-.086q-.031-.046-.062-.1a5 5 0 0 1-.387-.88 18 18 0 0 1-.117-.364 17 17 0 0 1-.44-1.896q-.046-.255-.087-.514c-.235-1.474-.396-3.21-.483-5.02l-.013-.268a4 4 0 0 1-.009-.255 57 57 0 0 1-.043-2.285c0-1.728.074-3.473.217-5.076a28 28 0 0 0-1.37-3.236c-.958-1.88-1.89-2.929-2.59-2.929q-.078-.001-.148.017c-.71.165-1.128 1.556-1.145 3.82q-.004.48.017.993c.018.043.022.09.022.138"/><path fill="url(#v)" d="m25.174 14.71.013.263.013.28c.205 3.872.762 6.706 1.389 7.945.021.044.043.078.06.117l.062.104q.117.186.235.302l.06.056.07.048c.07.043.144.065.213.065q.107 0 .214-.065a1.6 1.6 0 0 1-.214-.311c-.017-.03-.034-.056-.047-.091-.018-.03-.03-.07-.048-.104a4.6 4.6 0 0 1-.292-.972 9 9 0 0 1-.074-.44q-.092-.66-.113-1.478c-.004-.185-.009-.376-.004-.574.008-1.43.17-3.145.487-5.029q.02-.135.048-.272l.043-.255c.153-.85.336-1.736.549-2.64a46 46 0 0 1 1.414-4.83C28.878 2.606 28.064 0 27.29 0s-1.588 2.605-1.963 6.83l-.017.212c-.004.069-.013.142-.017.211a59 59 0 0 0-.179 4.688q.001 1.455.061 2.769"/><path fill="url(#w)" d="M27.38 14.83c-.017.096-.03.186-.047.281-.018.104-.03.203-.048.303-.518 3.43-.518 6.298 0 7.685.013.039.03.082.048.121.017.039.03.07.048.104q.11.24.252.393.031.033.061.06a.8.8 0 0 0 .34.194q.065.014.13.018a1.7 1.7 0 0 1-.218-.372q-.02-.046-.039-.099l-.039-.1a4 4 0 0 1-.196-1.036 7 7 0 0 1-.017-.423 10.5 10.5 0 0 1 .117-1.577q.042-.292.096-.596c.27-1.482.788-3.223 1.54-5.094l.097-.237q.044-.118.095-.23.484-1.153 1.071-2.354c1.253-2.54 2.646-4.721 3.982-6.346.105-2.73-.27-4.61-1.118-4.804a.6.6 0 0 0-.148-.017c-.697 0-1.628 1.05-2.59 2.93-.479.937-.94 2.03-1.37 3.235q-.033.099-.07.19c-.022.065-.048.13-.07.199a46 46 0 0 0-1.28 4.44 52 52 0 0 0-.626 3.133"/><path fill="url(#x)" d="M30.832 11.945a40 40 0 0 0-1.35 3.045l-.1.255c-1.322 3.448-1.845 6.433-1.396 7.97l.039.117.039.113c.083.207.187.384.318.522q.032.038.074.07c.026.021.052.047.078.064q.084.061.174.108c.022.013.048.018.074.026a1.3 1.3 0 0 1-.096-.194c-.013-.026-.021-.052-.035-.078-.008-.026-.017-.056-.03-.082q-.194-.556-.161-1.326c.004-.126.017-.255.03-.39a9.7 9.7 0 0 1 .44-1.9c.03-.09.057-.177.091-.272q.039-.11.083-.22c.827-2.234 2.35-4.791 4.318-7.223l.34-.415c.038-.048.082-.095.121-.147q.062-.07.122-.143c2.024-2.367 4.17-4.22 6.045-5.313.288-2.035.018-3.404-.748-3.776a1.15 1.15 0 0 0-.505-.112c-1.006 0-2.433 1.093-3.948 2.924-.035.04-.065.083-.1.121-.035.044-.07.083-.104.126-1.284 1.607-2.62 3.72-3.813 6.13"/><path fill="url(#y)" d="M40.016 6.735c-1.885 1.132-4.056 3.045-6.093 5.478l-.122.147-.126.15-.122.148c-2.02 2.497-3.573 5.123-4.37 7.391-.566 1.607-.7 2.886-.418 3.737q.013.044.03.082a2 2 0 0 0 .23.432q.04.051.08.095c.03.035.056.065.091.095a1 1 0 0 0 .105.095.1.1 0 0 0 .034.022 1 1 0 0 1-.043-.125l-.026-.087q-.015-.038-.022-.082a3 3 0 0 1-.087-.61v-.236c.022-.925.383-2.044 1.084-3.293.544-.976 1.262-1.978 2.12-2.972l.16-.186c.053-.056.1-.116.153-.172a28 28 0 0 1 3.36-3.15 29 29 0 0 1 2.51-1.792l.127-.078.122-.078c1.667-1.037 3.334-1.819 4.87-2.268q.632-.186 1.206-.29c.344-1.516.209-2.682-.5-3.248-.305-.242-.701-.359-1.163-.359-.814 0-1.845.363-2.994 1.024-.03.018-.065.04-.096.056a.5.5 0 0 1-.1.074"/><path fill="url(#z)" d="m44.904 9.374-.087.018a10 10 0 0 0-1.115.268c-1.58.462-3.303 1.283-5.022 2.371-.044.026-.083.052-.126.078a29 29 0 0 0-2.416 1.732 27.5 27.5 0 0 0-3.617 3.439c-.052.06-.109.125-.16.186q-.091.103-.175.207c-.718.869-1.332 1.741-1.806 2.592-.636 1.136-.984 2.16-1.049 3.015a2 2 0 0 0-.009.143v.125q0 .408.092.756l.021.078.027.086c.034.104.082.208.134.303q.032.066.07.125.04.066.087.125c.018.022.03.044.048.065l-.013-.06c-.004-.035-.013-.065-.017-.1-.005-.03-.005-.064-.01-.095a3 3 0 0 1-.017-.522c0-.026.005-.056.005-.082.074-1.098.657-2.35 1.723-3.664 1.21-1.486 2.93-2.916 4.966-4.138.048-.03.096-.056.144-.087s.1-.056.148-.086q.84-.494 1.74-.929a24.6 24.6 0 0 1 4.667-1.728l.108-.026c2.094-.518 4.018-.652 5.55-.397.413-1.288.343-2.337-.218-3.033-.483-.596-1.293-.894-2.363-.894q-.568.001-1.228.112c-.026.004-.052.013-.082.017"/><path fill="url(#A)" d="m48.83 13.345-.088-.014a10 10 0 0 0-1.554-.116c-1.218 0-2.594.19-4.056.566-.04.008-.074.021-.113.03s-.079.022-.118.03c-1.406.38-2.877.925-4.352 1.642q-1.03.5-1.976 1.071l-.152.091c-.053.03-.1.065-.153.095-1.902 1.175-3.512 2.532-4.657 3.94-1.018 1.253-1.584 2.445-1.68 3.486-.004.03-.004.056-.008.087q-.001.052-.01.099c-.008.186.005.367.027.54.004.03.013.06.017.09l.018.091q.026.137.074.272.027.086.06.165.025.064.057.13v-.195a3 3 0 0 1 .03-.337l.014-.087.013-.082q.073-.415.24-.838c.017-.047.043-.1.064-.147.018-.038.035-.082.053-.12.413-.895 1.136-1.789 2.137-2.649q.646-.552 1.406-1.045l.195-.13q.106-.062.205-.125c1.676-1.024 3.695-1.845 5.889-2.385.048-.013.091-.021.139-.034.04-.009.083-.022.122-.03 2.102-.489 4.174-.674 6.063-.562l.104.004q.053.006.104.005a14.4 14.4 0 0 1 2.534.397 9.6 9.6 0 0 1 2.193.83c.475-1.11.522-2.117.118-2.938-.47-.946-1.493-1.547-2.882-1.806a.2.2 0 0 0-.078-.021"/><path fill="url(#B)" d="m51.68 18.304-.074-.043a9.3 9.3 0 0 0-2.163-.821 14.5 14.5 0 0 0-2.62-.393 1 1 0 0 0-.104-.009l-.105-.004a17 17 0 0 0-.944-.026c-1.58 0-3.26.199-4.953.592l-.2.051c-.048.014-.092.022-.14.035l-.139.035c-2.25.574-4.309 1.447-5.976 2.535l-.23.152-.218.155a13 13 0 0 0-.98.756c-.883.752-1.536 1.534-1.954 2.316a2 2 0 0 0-.073.142c-.027.056-.057.113-.079.169a4.4 4.4 0 0 0-.34 1.093l-.017.086q-.03.225-.03.445v.199q.007.116.022.224.011.097.03.195c.009.039.013.073.022.112l.013-.065a5 5 0 0 1 .1-.375l.026-.083.026-.082c.07-.198.161-.397.261-.591.018-.03.03-.065.048-.095s.04-.061.057-.096c1.075-1.892 3.512-3.43 6.637-4.233.057-.013.113-.03.17-.043l.165-.04a20.2 20.2 0 0 1 4.631-.526q.616.001 1.219.034c.039.005.078.005.122.009.039.004.078.004.121.009 1.976.133 3.813.544 5.384 1.157q.044.02.087.035.046.02.087.034c1.554.631 2.842 1.465 3.748 2.433.561-.964.77-1.953.548-2.89-.24-1.016-.966-1.884-2.098-2.536-.03-.022-.06-.035-.087-.052"/><defs><radialGradient id="a" cx="0" cy="0" r="1" gradientTransform="matrix(9.20862 0 0 9.14021 42.544 25.177)" gradientUnits="userSpaceOnUse"><stop stop-color="#1e396c"/><stop offset="1" stop-color="#069"/></radialGradient><radialGradient id="b" cx="0" cy="0" r="1" gradientTransform="matrix(9.328 0 0 9.25871 42.185 29.887)" gradientUnits="userSpaceOnUse"><stop stop-color="#1e396c"/><stop offset="1" stop-color="#069"/></radialGradient><radialGradient id="c" cx="0" cy="0" r="1" gradientTransform="matrix(9.26481 0 0 9.19598 41.124 33.67)" gradientUnits="userSpaceOnUse"><stop stop-color="#1e396c"/><stop offset="1" stop-color="#069"/></radialGradient><radialGradient id="d" cx="0" cy="0" r="1" gradientTransform="matrix(9.06477 0 0 8.99744 39.407 36.555)" gradientUnits="userSpaceOnUse"><stop stop-color="#1e396c"/><stop offset="1" stop-color="#069"/></radialGradient><radialGradient id="e" cx="0" cy="0" r="1" gradientTransform="matrix(8.88298 0 0 8.81699 37.118 38.9)" gradientUnits="userSpaceOnUse"><stop stop-color="#1e396c"/><stop offset="1" stop-color="#069"/></radialGradient><radialGradient id="f" cx="0" cy="0" r="1" gradientTransform="matrix(8.74444 0 0 8.67949 34.34 40.69)" gradientUnits="userSpaceOnUse"><stop stop-color="#1e396c"/><stop offset="1" stop-color="#069"/></radialGradient><radialGradient id="g" cx="0" cy="0" r="1" gradientTransform="matrix(8.64926 0 0 8.58501 31.218 41.826)" gradientUnits="userSpaceOnUse"><stop stop-color="#1e396c"/><stop offset="1" stop-color="#069"/></radialGradient><radialGradient id="h" cx="0" cy="0" r="1" gradientTransform="matrix(8.63459 0 0 8.57045 27.397 42.226)" gradientUnits="userSpaceOnUse"><stop stop-color="#1e396c"/><stop offset="1" stop-color="#069"/></radialGradient><radialGradient id="i" cx="0" cy="0" r="1" gradientTransform="matrix(8.7393 0 0 8.67439 23.792 41.828)" gradientUnits="userSpaceOnUse"><stop stop-color="#1e396c"/><stop offset="1" stop-color="#069"/></radialGradient><radialGradient id="j" cx="0" cy="0" r="1" gradientTransform="matrix(8.83484 0 0 8.76921 20.581 40.726)" gradientUnits="userSpaceOnUse"><stop stop-color="#1e396c"/><stop offset="1" stop-color="#069"/></radialGradient><radialGradient id="k" cx="0" cy="0" r="1" gradientTransform="matrix(8.92158 0 0 8.85531 17.75 39.068)" gradientUnits="userSpaceOnUse"><stop stop-color="#1e396c"/><stop offset="1" stop-color="#069"/></radialGradient><radialGradient id="l" cx="0" cy="0" r="1" gradientTransform="matrix(8.97433 0 0 8.90767 15.386 37.007)" gradientUnits="userSpaceOnUse"><stop stop-color="#1e396c"/><stop offset="1" stop-color="#069"/></radialGradient><radialGradient id="m" cx="0" cy="0" r="1" gradientTransform="matrix(8.99723 0 0 8.93039 13.587 34.749)" gradientUnits="userSpaceOnUse"><stop stop-color="#1e396c"/><stop offset="1" stop-color="#069"/></radialGradient><radialGradient id="n" cx="0" cy="0" r="1" gradientTransform="matrix(8.97581 0 0 8.90913 12.438 32.523)" gradientUnits="userSpaceOnUse"><stop stop-color="#1e396c"/><stop offset="1" stop-color="#069"/></radialGradient><radialGradient id="o" cx="0" cy="0" r="1" gradientTransform="matrix(9.20858 0 0 9.14017 12.036 28.995)" gradientUnits="userSpaceOnUse"><stop stop-color="#1e396c"/><stop offset="1" stop-color="#069"/></radialGradient><radialGradient id="p" cx="0" cy="0" r="1" gradientTransform="matrix(9.32813 0 0 9.25884 12.395 24.285)" gradientUnits="userSpaceOnUse"><stop stop-color="#1e396c"/><stop offset="1" stop-color="#069"/></radialGradient><radialGradient id="q" cx="0" cy="0" r="1" gradientTransform="matrix(9.26498 0 0 9.19616 13.457 20.5)" gradientUnits="userSpaceOnUse"><stop stop-color="#1e396c"/><stop offset="1" stop-color="#069"/></radialGradient><radialGradient id="r" cx="0" cy="0" r="1" gradientTransform="matrix(9.06512 0 0 8.99778 15.171 17.614)" gradientUnits="userSpaceOnUse"><stop stop-color="#1e396c"/><stop offset="1" stop-color="#069"/></radialGradient><radialGradient id="s" cx="0" cy="0" r="1" gradientTransform="matrix(8.88215 0 0 8.81617 17.462 15.27)" gradientUnits="userSpaceOnUse"><stop stop-color="#1e396c"/><stop offset="1" stop-color="#069"/></radialGradient><radialGradient id="t" cx="0" cy="0" r="1" gradientTransform="matrix(8.74183 0 0 8.67689 20.238 13.484)" gradientUnits="userSpaceOnUse"><stop stop-color="#1e396c"/><stop offset="1" stop-color="#069"/></radialGradient><radialGradient id="u" cx="0" cy="0" r="1" gradientTransform="matrix(8.64952 0 0 8.58527 23.358 12.345)" gradientUnits="userSpaceOnUse"><stop stop-color="#1e396c"/><stop offset="1" stop-color="#069"/></radialGradient><radialGradient id="v" cx="0" cy="0" r="1" gradientTransform="matrix(8.63463 0 0 8.57049 27.184 11.945)" gradientUnits="userSpaceOnUse"><stop stop-color="#1e396c"/><stop offset="1" stop-color="#069"/></radialGradient><radialGradient id="w" cx="0" cy="0" r="1" gradientTransform="matrix(8.73926 0 0 8.67434 30.788 12.345)" gradientUnits="userSpaceOnUse"><stop stop-color="#1e396c"/><stop offset="1" stop-color="#069"/></radialGradient><radialGradient id="x" cx="0" cy="0" r="1" gradientTransform="matrix(8.8385 0 0 8.77284 33.992 13.442)" gradientUnits="userSpaceOnUse"><stop stop-color="#1e396c"/><stop offset="1" stop-color="#069"/></radialGradient><radialGradient id="y" cx="0" cy="0" r="1" gradientTransform="matrix(8.92084 0 0 8.85457 36.833 15.104)" gradientUnits="userSpaceOnUse"><stop stop-color="#1e396c"/><stop offset="1" stop-color="#069"/></radialGradient><radialGradient id="z" cx="0" cy="0" r="1" gradientTransform="matrix(8.97377 0 0 8.90711 39.194 17.165)" gradientUnits="userSpaceOnUse"><stop stop-color="#1e396c"/><stop offset="1" stop-color="#069"/></radialGradient><radialGradient id="A" cx="0" cy="0" r="1" gradientTransform="matrix(8.99749 0 0 8.93065 40.994 19.421)" gradientUnits="userSpaceOnUse"><stop stop-color="#1e396c"/><stop offset="1" stop-color="#069"/></radialGradient><radialGradient id="B" cx="0" cy="0" r="1" gradientTransform="matrix(8.97603 0 0 8.90935 42.143 21.647)" gradientUnits="userSpaceOnUse"><stop stop-color="#1e396c"/><stop offset="1" stop-color="#069"/></radialGradient></defs></svg>