<svg width="546" height="546" viewBox="0 0 546 546" fill="none" xmlns="http://www.w3.org/2000/svg">
<circle opacity="0.3" cx="273" cy="273" r="130" transform="rotate(90 273 273)" fill="url(#paint0_linear_964_10477)"/>
<circle opacity="0.5" cx="273" cy="273" r="220.5" stroke="#0870AC"/>
<circle opacity="0.5" cx="273" cy="273" r="157.5" stroke="#0870AC"/>
<circle opacity="0.3" cx="273" cy="273" r="272.5" stroke="#0870AC"/>
<circle cx="273" cy="273" r="176.5" stroke="#0870AC"/>
<circle cx="273" cy="273" r="93" fill="#0870AC"/>
<g clip-path="url(#clip0_964_10477)">
<path d="M307.86 332.884C307.426 332.884 306.996 332.713 306.677 332.382C296.524 321.84 280.178 312.553 261.829 306.902C243.481 301.251 224.731 299.732 210.384 302.731C209.638 302.886 208.881 302.51 208.561 301.819C201.201 286.003 199.989 268.107 205.15 251.433C210.31 234.754 221.422 220.654 236.44 211.731C237.096 211.342 237.931 211.453 238.46 212.004C248.613 222.546 264.963 231.833 283.311 237.484C301.66 243.134 320.409 244.654 334.752 241.655C335.498 241.5 336.256 241.876 336.575 242.566C343.939 258.383 345.151 276.279 339.991 292.953C334.83 309.627 323.719 323.728 308.7 332.651C308.438 332.806 308.151 332.88 307.865 332.88L307.86 332.884ZM226.168 297.958C237.632 297.958 250.321 299.936 262.796 303.777C281.116 309.419 297.543 318.637 308.118 329.178C321.884 320.643 332.062 307.482 336.858 291.993C341.654 276.499 340.679 259.903 334.134 245.112C319.443 247.874 300.668 246.248 282.349 240.609C264.025 234.967 247.597 225.749 237.022 215.208C223.256 223.743 213.079 236.903 208.283 252.397C203.491 267.891 204.462 284.483 211.01 299.274C215.696 298.391 220.799 297.958 226.173 297.958H226.168Z" fill="white"/>
<path d="M318.968 246.428C307.504 246.428 294.82 244.45 282.344 240.609C263.48 234.799 246.622 225.202 236.096 214.272C235.748 213.912 235.588 213.414 235.654 212.92C235.719 212.425 236.01 211.988 236.44 211.735C253.581 201.549 274.333 199.073 293.382 204.94C312.427 210.803 328.171 224.519 336.575 242.571C336.784 243.024 336.776 243.547 336.554 243.992C336.329 244.438 335.916 244.756 335.424 244.859C330.39 245.913 324.837 246.432 318.968 246.432V246.428ZM239.942 213.492C250.165 223.416 265.831 232.098 283.311 237.484C300.787 242.865 318.632 244.499 332.684 242.052C324.476 225.774 309.904 213.447 292.416 208.057C274.923 202.672 255.923 204.662 239.942 213.492Z" fill="white"/>
<path d="M272.531 342.572C265.552 342.572 258.549 341.542 251.762 339.45C232.713 333.583 216.97 319.867 208.565 301.819C208.357 301.366 208.365 300.843 208.586 300.398C208.807 299.952 209.225 299.633 209.716 299.531C224.588 296.422 243.935 297.971 262.8 303.781C281.661 309.587 298.518 319.188 309.044 330.118C309.388 330.478 309.552 330.976 309.486 331.47C309.421 331.965 309.13 332.402 308.7 332.655C297.67 339.209 285.138 342.572 272.531 342.572ZM212.452 302.334C220.664 318.612 235.232 330.943 252.725 336.328C270.213 341.714 289.213 339.72 305.194 330.894C294.971 320.97 279.31 312.287 261.829 306.906C244.349 301.525 226.504 299.891 212.452 302.338V302.334Z" fill="white"/>
<path d="M255.309 339.977C254.089 339.977 252.905 339.801 251.758 339.45C236.879 334.87 234.364 301.734 246.032 264.021C251.521 246.289 259.319 230.407 267.993 219.298C276.996 207.767 286.014 202.668 293.378 204.936C300.746 207.203 305.309 216.486 306.234 231.073C307.123 245.128 304.592 262.632 299.104 280.365C293.616 298.097 285.818 313.979 277.143 325.088C269.541 334.825 261.928 339.977 255.305 339.977H255.309ZM289.86 207.686C284.327 207.686 277.467 212.491 270.582 221.308C262.145 232.111 254.539 247.625 249.166 264.99C238.41 299.756 240.04 332.427 252.725 336.333C258.614 338.147 266.568 333.317 274.559 323.086C282.996 312.283 290.601 296.769 295.975 279.404C301.348 262.04 303.83 244.953 302.966 231.281C302.147 218.337 298.301 209.872 292.416 208.061C291.601 207.812 290.749 207.686 289.86 207.686Z" fill="white"/>
<path d="M338.422 294.105C338.262 294.105 338.099 294.081 337.939 294.032L206.231 253.476C205.367 253.21 204.883 252.295 205.15 251.433C205.416 250.571 206.333 250.089 207.197 250.354L338.905 290.914C339.77 291.18 340.253 292.095 339.987 292.957C339.77 293.66 339.122 294.109 338.422 294.109V294.105Z" fill="white"/>
<path d="M272.568 374C271.663 374 270.93 373.269 270.93 372.366V354.788C270.93 353.885 271.663 353.154 272.568 353.154C273.473 353.154 274.206 353.885 274.206 354.788V372.366C274.206 373.269 273.473 374 272.568 374Z" fill="white"/>
<path d="M292.743 374H252.393C251.488 374 250.755 373.269 250.755 372.366C250.755 371.463 251.488 370.731 252.393 370.731H292.743C293.648 370.731 294.382 371.463 294.382 372.366C294.382 373.269 293.648 374 292.743 374Z" fill="white"/>
<path d="M272.568 356.423C263.635 356.423 254.838 355.038 246.426 352.308C245.565 352.03 245.094 351.107 245.373 350.249C245.651 349.391 246.577 348.921 247.437 349.199C255.526 351.822 263.979 353.154 272.568 353.154C317.317 353.154 353.723 316.835 353.723 272.193C353.723 254.759 348.256 238.15 337.906 224.164C327.761 210.452 313.86 200.433 297.699 195.187C296.839 194.909 296.368 193.986 296.646 193.128C296.925 192.27 297.851 191.8 298.711 192.078C315.523 197.536 329.989 207.959 340.54 222.219C351.307 236.769 356.996 254.048 356.996 272.189C356.996 318.633 319.119 356.419 272.564 356.419L272.568 356.423Z" fill="white"/>
</g>
<defs>
<linearGradient id="paint0_linear_964_10477" x1="374.268" y1="187.746" x2="181.623" y2="372.855" gradientUnits="userSpaceOnUse">
<stop offset="0.225962" stop-color="#0870AC"/>
<stop offset="1" stop-color="#36B6FF"/>
</linearGradient>
<clipPath id="clip0_964_10477">
<rect width="155" height="182" fill="white" transform="translate(202 192)"/>
</clipPath>
</defs>
</svg>
