<svg width="514" height="514" viewBox="0 0 514 514" fill="none" xmlns="http://www.w3.org/2000/svg">
<circle opacity="0.3" cx="255" cy="257" r="130" transform="rotate(90 255 257)" fill="url(#paint0_linear_964_10483)"/>
<circle cx="257" cy="257" r="206.5" stroke="#0870AC"/>
<circle opacity="0.5" cx="257" cy="257" r="183.5" stroke="#0870AC"/>
<circle opacity="0.3" cx="257" cy="257" r="256.5" stroke="#0870AC"/>
<circle cx="255" cy="257" r="91" fill="#0870AC"/>
<g clip-path="url(#clip0_964_10483)">
<path d="M230.475 257.321C227.829 257.321 225.146 256.834 222.476 255.868L219.706 254.863C218.875 254.563 218.448 253.646 218.748 252.82C219.047 251.994 219.965 251.563 220.791 251.862L223.562 252.868C226.34 253.873 229.122 254.284 231.833 254.081C233.497 253.957 235.146 253.63 236.735 253.107C236.95 253.035 237.166 252.963 237.377 252.884C242.203 251.124 246.171 247.505 248.546 242.693L250.486 238.766C250.822 238.084 251.596 237.737 252.33 237.932L274.772 243.934C276.656 244.444 278.704 244.041 280.253 242.86C282.441 241.188 283.287 238.323 282.357 235.734L282.309 235.598C281.606 233.639 279.986 232.154 277.974 231.628L237.222 220.774C232.671 219.581 227.841 219.53 223.258 220.627C223.242 220.627 223.226 220.635 223.21 220.639L206.058 224.17C205.814 224.218 205.567 224.214 205.327 224.15L185.26 218.851C184.406 218.628 183.899 217.754 184.123 216.9C184.346 216.05 185.221 215.539 186.075 215.763L205.778 220.966L222.54 217.514C227.625 216.301 232.982 216.361 238.04 217.686L278.792 228.539C281.818 229.333 284.261 231.568 285.319 234.521L285.366 234.656C286.764 238.559 285.49 242.876 282.193 245.394C279.862 247.178 276.776 247.784 273.942 247.014L252.77 241.352L251.408 244.105C248.666 249.656 244.071 253.841 238.471 255.884C238.224 255.972 237.976 256.06 237.729 256.14C235.896 256.742 233.992 257.117 232.072 257.261C231.541 257.301 231.006 257.321 230.471 257.321H230.475Z" fill="white"/>
<path d="M203.715 291.644C203.343 291.644 202.972 291.517 202.669 291.253L191.224 281.314L171.205 276.23C170.351 276.015 169.832 275.145 170.052 274.291C170.267 273.437 171.138 272.918 171.992 273.138L192.378 278.313C192.621 278.373 192.845 278.493 193.033 278.656L204.764 288.847C205.431 289.426 205.499 290.435 204.924 291.098C204.609 291.461 204.166 291.648 203.719 291.648L203.715 291.644Z" fill="white"/>
<path d="M271.775 316.144C271.22 316.144 270.677 315.853 270.385 315.334C269.95 314.568 270.218 313.594 270.988 313.16L304.699 294.054C307.553 292.438 310.052 290.156 311.92 287.463L321.42 273.772C321.56 273.573 321.744 273.405 321.959 273.285L340.629 262.923C341.399 262.496 342.373 262.771 342.8 263.545C343.228 264.315 342.952 265.289 342.178 265.716L323.831 275.899L314.543 289.286C312.399 292.375 309.541 294.984 306.272 296.836L272.561 315.941C272.313 316.08 272.042 316.148 271.775 316.148V316.144Z" fill="white"/>
<path d="M235.194 317.457C231.785 317.457 228.476 315.657 226.707 312.473C225.454 310.211 225.154 307.597 225.865 305.111C226.579 302.625 228.216 300.566 230.479 299.31L255.931 285.2C256.705 284.773 257.675 285.053 258.103 285.823C258.53 286.593 258.25 287.566 257.48 287.993L232.028 302.103C230.511 302.945 229.414 304.325 228.935 305.989C228.456 307.657 228.655 309.409 229.497 310.925C231.234 314.053 235.194 315.187 238.323 313.455L263.591 299.445C264.366 299.018 265.336 299.298 265.763 300.068C266.19 300.838 265.911 301.811 265.14 302.238L239.872 316.248C238.387 317.07 236.778 317.461 235.19 317.461L235.194 317.457Z" fill="white"/>
<path d="M218.113 308.427C217.219 308.427 216.317 308.303 215.43 308.048C212.944 307.334 210.884 305.698 209.626 303.435C207.036 298.767 208.728 292.861 213.399 290.272L248.267 270.955C249.037 270.528 250.011 270.808 250.438 271.578C250.866 272.348 250.586 273.321 249.816 273.748L214.947 293.065C213.431 293.907 212.333 295.287 211.854 296.951C211.375 298.619 211.574 300.371 212.417 301.887C213.259 303.404 214.64 304.501 216.305 304.98C217.973 305.458 219.726 305.259 221.243 304.417L255.927 285.204C256.698 284.777 257.672 285.057 258.099 285.827C258.526 286.597 258.246 287.57 257.476 287.997L222.791 307.21C221.334 308.016 219.73 308.427 218.109 308.427H218.113Z" fill="white"/>
<path d="M251.84 326C251.001 326 250.159 325.892 249.333 325.669C246.858 325.006 244.822 323.43 243.6 321.228C242.379 319.025 242.116 316.463 242.866 314.013C243.608 311.587 245.257 309.564 247.512 308.315L265.388 298.408C266.162 297.981 267.132 298.26 267.559 299.03C267.986 299.8 267.707 300.774 266.936 301.201L249.061 311.109C247.536 311.955 246.419 313.319 245.92 314.951C245.425 316.563 245.596 318.243 246.395 319.684C247.193 321.124 248.53 322.157 250.159 322.592C251.808 323.031 253.556 322.808 255.081 321.962L272.956 312.05C273.727 311.623 274.7 311.903 275.128 312.673C275.555 313.443 275.275 314.416 274.505 314.843L256.63 324.755C255.137 325.585 253.492 326.008 251.84 326.008V326Z" fill="white"/>
<path d="M218.987 289.494C218.093 289.494 217.191 289.37 216.305 289.115C213.818 288.4 211.758 286.764 210.501 284.502C209.247 282.239 208.948 279.626 209.658 277.14C210.373 274.654 212.01 272.595 214.273 271.338L225.362 265.189C226.133 264.762 227.106 265.042 227.534 265.812C227.961 266.582 227.681 267.556 226.911 267.982L215.822 274.131C214.305 274.973 213.207 276.354 212.728 278.018C212.249 279.686 212.453 281.437 213.291 282.954C214.133 284.47 215.514 285.567 217.179 286.046C218.847 286.525 220.6 286.321 222.117 285.484L247.385 271.474C248.159 271.047 249.129 271.326 249.556 272.096C249.983 272.867 249.704 273.84 248.934 274.267L223.666 288.277C222.209 289.087 220.604 289.498 218.983 289.498L218.987 289.494Z" fill="white"/>
<path d="M295.254 225.052C294.687 225.052 294.137 224.749 293.849 224.214C293.43 223.44 293.721 222.47 294.496 222.051L312.782 212.192C313.557 211.773 314.527 212.064 314.946 212.838C315.365 213.612 315.074 214.582 314.299 215.001L296.009 224.86C295.769 224.992 295.51 225.052 295.254 225.052Z" fill="white"/>
</g>
<defs>
<linearGradient id="paint0_linear_964_10483" x1="356.268" y1="171.746" x2="163.623" y2="356.855" gradientUnits="userSpaceOnUse">
<stop offset="0.225962" stop-color="#0870AC"/>
<stop offset="1" stop-color="#36B6FF"/>
</linearGradient>
<clipPath id="clip0_964_10483">
<rect width="173" height="114" fill="white" transform="translate(170 212)"/>
</clipPath>
</defs>
</svg>
