<svg width="514" height="514" viewBox="0 0 514 514" fill="none" xmlns="http://www.w3.org/2000/svg">
<circle opacity="0.3" cx="257" cy="257" r="130" transform="rotate(90 257 257)" fill="url(#paint0_linear_964_10482)"/>
<circle cx="257" cy="257" r="158.5" stroke="#0870AC"/>
<circle opacity="0.5" cx="257" cy="257" r="242.5" stroke="#0870AC"/>
<circle opacity="0.3" cx="257" cy="257" r="199.5" stroke="#0870AC"/>
<circle opacity="0.3" cx="257" cy="257" r="256.5" stroke="#0870AC"/>
<circle cx="256" cy="257" r="91" fill="#0870AC"/>
<mask id="path-7-outside-1_964_10482" maskUnits="userSpaceOnUse" x="178" y="178" width="163" height="160" fill="black">
<rect fill="white" x="178" y="178" width="163" height="160"/>
<path fill-rule="evenodd" clip-rule="evenodd" d="M213.758 240.702V301.851H202.058V240.702H213.758ZM193.378 228.239H325.631H325.624C327.243 228.239 328.556 226.936 328.556 225.322V213.048C328.556 211.259 327.466 209.652 325.8 208.984L293.734 195.224L261.668 181.464V181.471C260.293 180.843 258.709 180.843 257.335 181.471L193.202 208.99V208.984C191.536 209.652 190.446 211.259 190.446 213.048V225.322C190.446 226.936 191.759 228.239 193.378 228.239ZM259.5 196.371C263.563 196.371 267.219 198.808 268.769 202.549C270.327 206.282 269.467 210.59 266.596 213.452C263.725 216.315 259.412 217.172 255.661 215.62C251.91 214.073 249.466 210.421 249.466 206.377C249.466 203.723 250.522 201.178 252.404 199.301C254.287 197.424 256.839 196.371 259.5 196.371ZM183.458 335H335.542C336.896 334.993 337.993 333.899 338 332.549V328.728C338 327.371 336.896 326.277 335.542 326.277H183.458C182.104 326.277 181 327.371 181 328.728V332.549C181.007 333.899 182.104 334.993 183.458 335ZM191.359 314.259H327.634C328.291 314.266 328.921 314.529 329.381 314.995C329.848 315.468 330.105 316.096 330.099 316.751V323.043H188.901V316.751C188.915 315.4 190.005 314.306 191.366 314.293L191.359 314.259ZM200.981 237.381C199.173 237.381 197.697 235.922 197.69 234.12V231.493H218.124V234.12C218.124 235.922 216.662 237.381 214.847 237.381H200.981ZM200.981 305.118C199.173 305.118 197.697 306.576 197.69 308.386V311.012H218.124V308.386C218.124 306.583 216.662 305.118 214.847 305.118H200.981ZM235.37 305.118C233.562 305.118 232.099 306.583 232.099 308.386V311.012H252.568V308.386C252.568 306.583 251.099 305.118 249.291 305.118H235.37ZM269.758 305.118H269.765C268.885 305.104 268.039 305.442 267.409 306.056C266.786 306.671 266.434 307.508 266.434 308.386V311.012H286.903V308.386C286.903 306.583 285.44 305.118 283.632 305.118L269.758 305.118ZM304.147 305.118H304.154C302.34 305.118 300.877 306.583 300.877 308.386V311.012H321.311V308.386C321.304 306.576 319.828 305.118 318.021 305.118H304.147ZM235.37 237.381C233.562 237.381 232.099 235.922 232.099 234.12V231.493H252.568V234.12C252.568 235.922 251.099 237.381 249.291 237.381H235.37ZM269.758 237.381H269.765C268.885 237.401 268.039 237.056 267.409 236.449C266.786 235.834 266.434 234.99 266.434 234.119V231.493H286.903V234.119C286.903 235.922 285.44 237.38 283.632 237.38L269.758 237.381ZM304.147 237.381H304.154C302.34 237.381 300.877 235.922 300.877 234.12V231.493H321.311V234.12C321.304 235.922 319.828 237.381 318.021 237.381H304.147ZM248.167 240.702V301.851H236.446V240.702H248.167ZM282.555 240.702V301.851H270.835V240.702H282.555ZM316.944 240.702V301.851H305.245V240.702H316.944Z"/>
</mask>
<path fill-rule="evenodd" clip-rule="evenodd" d="M213.758 240.702V301.851H202.058V240.702H213.758ZM193.378 228.239H325.631H325.624C327.243 228.239 328.556 226.936 328.556 225.322V213.048C328.556 211.259 327.466 209.652 325.8 208.984L293.734 195.224L261.668 181.464V181.471C260.293 180.843 258.709 180.843 257.335 181.471L193.202 208.99V208.984C191.536 209.652 190.446 211.259 190.446 213.048V225.322C190.446 226.936 191.759 228.239 193.378 228.239ZM259.5 196.371C263.563 196.371 267.219 198.808 268.769 202.549C270.327 206.282 269.467 210.59 266.596 213.452C263.725 216.315 259.412 217.172 255.661 215.62C251.91 214.073 249.466 210.421 249.466 206.377C249.466 203.723 250.522 201.178 252.404 199.301C254.287 197.424 256.839 196.371 259.5 196.371ZM183.458 335H335.542C336.896 334.993 337.993 333.899 338 332.549V328.728C338 327.371 336.896 326.277 335.542 326.277H183.458C182.104 326.277 181 327.371 181 328.728V332.549C181.007 333.899 182.104 334.993 183.458 335ZM191.359 314.259H327.634C328.291 314.266 328.921 314.529 329.381 314.995C329.848 315.468 330.105 316.096 330.099 316.751V323.043H188.901V316.751C188.915 315.4 190.005 314.306 191.366 314.293L191.359 314.259ZM200.981 237.381C199.173 237.381 197.697 235.922 197.69 234.12V231.493H218.124V234.12C218.124 235.922 216.662 237.381 214.847 237.381H200.981ZM200.981 305.118C199.173 305.118 197.697 306.576 197.69 308.386V311.012H218.124V308.386C218.124 306.583 216.662 305.118 214.847 305.118H200.981ZM235.37 305.118C233.562 305.118 232.099 306.583 232.099 308.386V311.012H252.568V308.386C252.568 306.583 251.099 305.118 249.291 305.118H235.37ZM269.758 305.118H269.765C268.885 305.104 268.039 305.442 267.409 306.056C266.786 306.671 266.434 307.508 266.434 308.386V311.012H286.903V308.386C286.903 306.583 285.44 305.118 283.632 305.118L269.758 305.118ZM304.147 305.118H304.154C302.34 305.118 300.877 306.583 300.877 308.386V311.012H321.311V308.386C321.304 306.576 319.828 305.118 318.021 305.118H304.147ZM235.37 237.381C233.562 237.381 232.099 235.922 232.099 234.12V231.493H252.568V234.12C252.568 235.922 251.099 237.381 249.291 237.381H235.37ZM269.758 237.381H269.765C268.885 237.401 268.039 237.056 267.409 236.449C266.786 235.834 266.434 234.99 266.434 234.119V231.493H286.903V234.119C286.903 235.922 285.44 237.38 283.632 237.38L269.758 237.381ZM304.147 237.381H304.154C302.34 237.381 300.877 235.922 300.877 234.12V231.493H321.311V234.12C321.304 235.922 319.828 237.381 318.021 237.381H304.147ZM248.167 240.702V301.851H236.446V240.702H248.167ZM282.555 240.702V301.851H270.835V240.702H282.555ZM316.944 240.702V301.851H305.245V240.702H316.944Z" fill="#0870AC"/>
<path fill-rule="evenodd" clip-rule="evenodd" d="M213.758 240.702V301.851H202.058V240.702H213.758ZM193.378 228.239H325.631H325.624C327.243 228.239 328.556 226.936 328.556 225.322V213.048C328.556 211.259 327.466 209.652 325.8 208.984L293.734 195.224L261.668 181.464V181.471C260.293 180.843 258.709 180.843 257.335 181.471L193.202 208.99V208.984C191.536 209.652 190.446 211.259 190.446 213.048V225.322C190.446 226.936 191.759 228.239 193.378 228.239ZM259.5 196.371C263.563 196.371 267.219 198.808 268.769 202.549C270.327 206.282 269.467 210.59 266.596 213.452C263.725 216.315 259.412 217.172 255.661 215.62C251.91 214.073 249.466 210.421 249.466 206.377C249.466 203.723 250.522 201.178 252.404 199.301C254.287 197.424 256.839 196.371 259.5 196.371ZM183.458 335H335.542C336.896 334.993 337.993 333.899 338 332.549V328.728C338 327.371 336.896 326.277 335.542 326.277H183.458C182.104 326.277 181 327.371 181 328.728V332.549C181.007 333.899 182.104 334.993 183.458 335ZM191.359 314.259H327.634C328.291 314.266 328.921 314.529 329.381 314.995C329.848 315.468 330.105 316.096 330.099 316.751V323.043H188.901V316.751C188.915 315.4 190.005 314.306 191.366 314.293L191.359 314.259ZM200.981 237.381C199.173 237.381 197.697 235.922 197.69 234.12V231.493H218.124V234.12C218.124 235.922 216.662 237.381 214.847 237.381H200.981ZM200.981 305.118C199.173 305.118 197.697 306.576 197.69 308.386V311.012H218.124V308.386C218.124 306.583 216.662 305.118 214.847 305.118H200.981ZM235.37 305.118C233.562 305.118 232.099 306.583 232.099 308.386V311.012H252.568V308.386C252.568 306.583 251.099 305.118 249.291 305.118H235.37ZM269.758 305.118H269.765C268.885 305.104 268.039 305.442 267.409 306.056C266.786 306.671 266.434 307.508 266.434 308.386V311.012H286.903V308.386C286.903 306.583 285.44 305.118 283.632 305.118L269.758 305.118ZM304.147 305.118H304.154C302.34 305.118 300.877 306.583 300.877 308.386V311.012H321.311V308.386C321.304 306.576 319.828 305.118 318.021 305.118H304.147ZM235.37 237.381C233.562 237.381 232.099 235.922 232.099 234.12V231.493H252.568V234.12C252.568 235.922 251.099 237.381 249.291 237.381H235.37ZM269.758 237.381H269.765C268.885 237.401 268.039 237.056 267.409 236.449C266.786 235.834 266.434 234.99 266.434 234.119V231.493H286.903V234.119C286.903 235.922 285.44 237.38 283.632 237.38L269.758 237.381ZM304.147 237.381H304.154C302.34 237.381 300.877 235.922 300.877 234.12V231.493H321.311V234.12C321.304 235.922 319.828 237.381 318.021 237.381H304.147ZM248.167 240.702V301.851H236.446V240.702H248.167ZM282.555 240.702V301.851H270.835V240.702H282.555ZM316.944 240.702V301.851H305.245V240.702H316.944Z" stroke="white" stroke-width="6" stroke-linejoin="round" mask="url(#path-7-outside-1_964_10482)"/>
<defs>
<linearGradient id="paint0_linear_964_10482" x1="358.268" y1="171.746" x2="165.623" y2="356.855" gradientUnits="userSpaceOnUse">
<stop offset="0.225962" stop-color="#0870AC"/>
<stop offset="1" stop-color="#36B6FF"/>
</linearGradient>
</defs>
</svg>
