<svg width="221" height="228" viewBox="0 0 221 228" fill="none" xmlns="http://www.w3.org/2000/svg">
<path d="M23.1835 99.4558C23.1835 99.4558 61.9544 97.9032 70.3329 34.1721C77.7732 -22.4273 143.151 3.3347 162.049 25.8965C186.53 55.1235 173.48 105.4 205.15 111.751C236.819 118.103 216.138 188.719 168.066 181.96C108.266 173.552 122.734 208.496 104.783 223.286C91.899 233.901 39.0719 223.683 37.3112 185.149C35.8296 152.724 22.1519 152.826 12.457 149.15C-1.52521 143.847 -10.3355 105.444 23.1835 99.4558Z" fill="#E6F0F6" fill-opacity="0.5"/>
<circle cx="110.037" cy="114.197" r="41.9195" fill="#CDE2EE" stroke="#065989" stroke-width="2"/>
<circle cx="110.04" cy="114.197" r="29.6568" fill="#E6F0F6" stroke="#065989" stroke-width="2"/>
<mask id="path-4-inside-1_2750_14980" fill="white">
<path d="M110.041 91.6589C110.041 91.2087 109.676 90.8423 109.226 90.858C103.593 91.0545 98.2109 93.283 94.0827 97.1469C89.9544 101.011 87.3751 106.234 86.8066 111.841C86.7612 112.289 87.1027 112.678 87.5519 112.708C88.0011 112.737 88.3878 112.397 88.4344 111.949C88.9747 106.755 91.3705 101.918 95.1967 98.3371C99.0229 94.756 104.007 92.6851 109.226 92.4893C109.676 92.4724 110.041 92.1091 110.041 91.6589Z"/>
</mask>
<path d="M110.041 91.6589C110.041 91.2087 109.676 90.8423 109.226 90.858C103.593 91.0545 98.2109 93.283 94.0827 97.1469C89.9544 101.011 87.3751 106.234 86.8066 111.841C86.7612 112.289 87.1027 112.678 87.5519 112.708C88.0011 112.737 88.3878 112.397 88.4344 111.949C88.9747 106.755 91.3705 101.918 95.1967 98.3371C99.0229 94.756 104.007 92.6851 109.226 92.4893C109.676 92.4724 110.041 92.1091 110.041 91.6589Z" fill="#0870AC" stroke="#065989" stroke-width="2" mask="url(#path-4-inside-1_2750_14980)"/>
<rect x="142.719" y="159.711" width="14" height="42" rx="7" transform="rotate(-45 142.719 159.711)" fill="#CDE2EE" stroke="#065989" stroke-width="2"/>
<rect x="158.181" y="163.081" width="0.974179" height="15.3623" rx="0.487089" transform="rotate(-45 158.181 163.081)" fill="white" stroke="#065989" stroke-width="0.974179"/>
<rect x="142.004" y="149.804" width="1" height="7" transform="rotate(-45 142.004 149.804)" fill="#0870AC" stroke="#065989"/>
<rect x="163.016" y="109.661" width="19" height="1" rx="0.5" fill="#0870AC" stroke="#065989"/>
<rect x="39.3516" y="126.206" width="19" height="1" rx="0.5" fill="#0870AC" stroke="#065989"/>
<rect x="187.016" y="109.661" width="9" height="1" rx="0.5" fill="#0870AC" stroke="#065989"/>
<rect x="168.016" y="116.999" width="9" height="1" rx="0.5" fill="#0870AC" stroke="#065989"/>
<rect x="44.3516" y="133.544" width="9" height="1" rx="0.5" fill="#0870AC" stroke="#065989"/>
</svg>
