<svg width="384" height="305" viewBox="0 0 384 305" fill="none" xmlns="http://www.w3.org/2000/svg">
<rect width="383.995" height="304.995" fill="url(#paint0_linear_964_17910)"/>
<path d="M190.495 148.23C180.28 148.23 171.968 139.918 171.968 129.704C171.968 119.489 180.28 111.177 190.495 111.177C200.709 111.177 209.021 119.489 209.021 129.704C209.021 139.918 200.709 148.23 190.495 148.23ZM190.495 115.336C182.573 115.336 176.127 121.781 176.127 129.704C176.127 137.626 182.573 144.071 190.495 144.071C198.417 144.071 204.862 137.626 204.862 129.704C204.862 121.781 198.417 115.336 190.495 115.336Z" fill="#FFECB7"/>
<path d="M222.474 194.166C221.325 194.166 220.394 193.235 220.394 192.087C220.394 175.598 206.983 162.187 190.494 162.187C174.006 162.187 160.595 175.598 160.595 192.087C160.595 193.235 159.664 194.166 158.515 194.166C157.367 194.166 156.436 193.235 156.436 192.087C156.436 173.306 171.713 158.028 190.494 158.028C209.275 158.028 224.553 173.306 224.553 192.087C224.553 193.235 223.622 194.166 222.474 194.166Z" fill="#FFECB7"/>
<path d="M260.81 189.509C259.662 189.509 258.731 188.578 258.731 187.429C258.731 174.481 248.194 163.944 235.246 163.944C231.337 163.944 227.464 164.921 224.054 166.777C223.046 167.323 221.783 166.954 221.237 165.94C220.691 164.932 221.06 163.668 222.074 163.123C226.092 160.939 230.651 159.785 235.251 159.785C250.492 159.785 262.895 172.188 262.895 187.429C262.895 188.578 261.964 189.509 260.816 189.509H260.81Z" fill="#FFECB7"/>
<path d="M234.435 153.038C225.374 153.038 218.003 145.667 218.003 136.607C218.003 127.546 225.374 120.175 234.435 120.175C243.495 120.175 250.866 127.546 250.866 136.607C250.866 145.667 243.495 153.038 234.435 153.038ZM234.435 124.334C227.667 124.334 222.162 129.839 222.162 136.607C222.162 143.375 227.667 148.88 234.435 148.88C241.203 148.88 246.708 143.375 246.708 136.607C246.708 129.839 241.203 124.334 234.435 124.334Z" fill="#FFECB7"/>
<path d="M120.179 189.509C119.03 189.509 118.1 188.578 118.1 187.429C118.1 172.188 130.502 159.785 145.743 159.785C150.344 159.785 154.903 160.939 158.921 163.123C159.929 163.668 160.304 164.932 159.752 165.94C159.207 166.948 157.944 167.323 156.935 166.772C153.525 164.916 149.652 163.939 145.743 163.939C132.795 163.939 122.258 174.475 122.258 187.424C122.258 188.573 121.328 189.503 120.179 189.503V189.509Z" fill="#FFECB7"/>
<path d="M146.549 153.038C137.489 153.038 130.118 145.667 130.118 136.607C130.118 127.546 137.489 120.175 146.549 120.175C155.609 120.175 162.98 127.546 162.98 136.607C162.98 145.667 155.609 153.038 146.549 153.038ZM146.549 124.334C139.781 124.334 134.276 129.839 134.276 136.607C134.276 143.375 139.781 148.88 146.549 148.88C153.317 148.88 158.822 143.375 158.822 136.607C158.822 129.839 153.317 124.334 146.549 124.334Z" fill="#FFECB7"/>
<path d="M96.6316 176.731C95.6907 176.731 94.833 176.087 94.6095 175.125C92.8785 167.754 92 160.139 92 152.498C91.9948 98.1819 136.179 53.9976 190.495 53.9976C216.803 53.9976 241.541 64.2431 260.145 82.8474C260.956 83.6583 260.956 84.9734 260.145 85.7895C259.334 86.6004 258.014 86.6004 257.203 85.7895C239.384 67.9702 215.696 58.1561 190.495 58.1561C138.477 58.1561 96.1533 100.48 96.1533 152.498C96.1533 159.822 96.9954 167.115 98.6536 174.174C98.9188 175.292 98.2222 176.409 97.1046 176.674C96.9435 176.711 96.7823 176.731 96.6264 176.731H96.6316Z" fill="#FFECB7"/>
<path d="M190.495 250.998C164.436 250.998 139.875 240.924 121.328 222.626C120.512 221.82 120.502 220.505 121.307 219.684C122.113 218.868 123.428 218.857 124.249 219.663C142.012 237.186 165.538 246.834 190.495 246.834C242.513 246.834 284.836 204.51 284.836 152.492C284.836 146.088 284.192 139.689 282.918 133.477C282.689 132.355 283.412 131.253 284.54 131.024C285.668 130.795 286.765 131.518 286.994 132.646C288.319 139.133 288.995 145.813 288.995 152.492C288.995 206.803 244.81 250.992 190.495 250.992V250.998Z" fill="#FFECB7"/>
<path d="M258.668 86.3977C257.603 86.3977 256.698 85.5868 256.6 84.5056L255.222 69.1086C255.118 67.965 255.965 66.9566 257.109 66.8526C258.258 66.7538 259.261 67.5959 259.365 68.7395L260.742 84.1365C260.846 85.2801 259.999 86.2885 258.856 86.3925C258.793 86.3977 258.731 86.4029 258.668 86.4029V86.3977Z" fill="#FFECB7"/>
<path d="M244.124 87.0735C243.022 87.0735 242.102 86.2054 242.05 85.093C241.998 83.9442 242.882 82.9721 244.031 82.9201L258.58 82.2392C259.734 82.182 260.701 83.0709 260.753 84.2197C260.805 85.3685 259.921 86.3405 258.773 86.3925L244.223 87.0735C244.192 87.0735 244.155 87.0735 244.124 87.0735Z" fill="#FFECB7"/>
<path d="M124.103 238.501C123.038 238.501 122.133 237.69 122.035 236.609L120.657 221.212C120.553 220.069 121.4 219.06 122.544 218.956C123.688 218.852 124.696 219.699 124.8 220.843L126.178 236.24C126.281 237.384 125.434 238.392 124.291 238.496C124.228 238.501 124.166 238.506 124.103 238.506V238.501Z" fill="#FFECB7"/>
<path d="M122.726 223.104C121.624 223.104 120.704 222.236 120.652 221.124C120.6 219.975 121.484 219.003 122.633 218.951L137.182 218.27C138.331 218.218 139.303 219.102 139.355 220.251C139.407 221.399 138.523 222.371 137.375 222.423L122.825 223.104C122.794 223.104 122.757 223.104 122.726 223.104Z" fill="#FFECB7"/>
<defs>
<linearGradient id="paint0_linear_964_17910" x1="1.81843" y1="1.78883e-06" x2="360.93" y2="328.24" gradientUnits="userSpaceOnUse">
<stop offset="0.230769" stop-color="#FF963E"/>
<stop offset="1" stop-color="#D6670A"/>
</linearGradient>
</defs>
</svg>
