<svg width="384" height="305" viewBox="0 0 384 305" fill="none" xmlns="http://www.w3.org/2000/svg">
<rect width="383.995" height="304.995" fill="url(#paint0_linear_964_17900)"/>
<path d="M302.673 126.374C300.148 120.39 295.807 115.2 289.762 110.946C289.633 110.855 289.412 110.726 289.153 110.572C288.739 110.328 287.804 109.776 287.626 109.532C288.897 105.216 289.465 100.963 289.271 97.2231C288.691 86.0915 284.037 76.3552 276.166 69.8124C269.578 64.3341 260.482 61.1838 252.419 61.5913C252.222 61.6009 252.009 61.6465 251.783 61.6944C251.436 61.7688 251.043 61.8527 250.817 61.7592C250.53 61.6393 250.273 61.0375 250.084 60.5988C249.985 60.371 249.894 60.1552 249.798 59.9922C248.724 58.1749 247.415 56.4535 245.905 54.8807C239.758 48.4722 229.976 44.8184 219.007 44.8184C218.844 44.8184 218.676 44.8184 218.513 44.8208C207.811 44.9262 197.384 48.5537 190.623 54.5211C190.518 54.6146 190.345 54.7944 190.127 55.0246C189.829 55.3362 189.223 55.9716 189.029 56.0747C188.801 56.0147 188.127 55.3674 187.799 55.0533C187.585 54.8471 187.398 54.6697 187.276 54.5738C173.363 43.7011 155.193 43.809 142.059 54.8423C139.503 56.9881 137.535 59.7045 135.583 62.536C135.286 62.4904 134.457 62.2626 133.939 62.1212C133.514 62.0037 133.148 61.903 132.982 61.8718C122.26 59.7692 110.489 63.6916 102.258 72.1068C97.6788 76.7891 94.4541 82.9052 92.9389 89.7884C91.4356 96.607 91.7425 103.531 93.8236 109.812C93.9075 110.067 94.0633 110.4 94.2287 110.75C94.4877 111.306 94.8113 111.997 94.8113 112.335C94.8113 112.685 94.55 113.399 94.2983 114.087C94.0849 114.67 93.8643 115.272 93.7876 115.701C92.6728 121.896 95.3747 127.763 97.837 131.594C100.846 136.276 105.185 140.568 109.738 143.373C117.259 148.005 126.008 150.393 135.737 150.472C144.289 150.546 153.514 148.76 162.407 145.32C162.589 145.25 162.821 145.171 163.092 145.08C164.181 144.718 165.67 144.219 166.058 143.457C166.334 142.917 166.348 142.359 166.094 141.886C165.806 141.352 165.214 140.982 164.509 140.901L164.452 140.894L164.399 140.913C163.852 141.114 163.306 141.316 162.759 141.517C159.127 142.86 155.37 144.248 151.551 145.173C133.747 149.482 117.185 146.226 106.108 136.235C101.695 132.256 96.9475 125.063 96.9523 118.681C96.9523 118.324 97.1153 117.06 97.3071 116.645C97.5661 117.209 97.9856 117.777 98.3357 118.225C103.593 124.953 108.981 125.173 111.052 124.955C115.643 124.471 120.29 120.582 121.63 116.096C122.622 112.771 121.661 109.707 118.923 107.47C116.813 105.746 113.224 104.799 109.074 104.869C105.133 104.936 101.409 105.909 99.1149 107.468C98.5706 107.837 97.9856 108.336 97.3263 108.988L97.2448 109.002C95.4467 103.684 95.0175 97.8297 96.0077 92.0565C97.0194 86.161 99.4457 80.7546 103.025 76.4223C107.393 71.1358 113.96 67.0337 120.597 65.4465C124.037 64.6242 130.119 64.4204 133.344 65.4441C133.965 65.6407 134.092 65.8157 134.099 65.8685C132.85 68.9301 132.136 72.5671 132.186 75.6096C132.253 79.6542 133.625 82.6391 136.149 84.2454C139.24 86.209 143.764 85.7151 146.674 83.097C150.719 79.46 150.659 74.0824 146.516 69.3952C144.656 67.2878 142.124 65.4441 138.995 63.9145C138.988 63.7611 139.134 63.2504 140.383 61.6345L140.484 61.505C144.001 56.897 149.626 53.1042 155.531 51.3588C165.406 48.441 174.799 50.0377 183.45 56.0986C184.478 56.8203 186.456 58.3139 186.66 58.6568C186.612 58.9109 185.957 59.7908 185.639 60.2176C185.442 60.4837 185.286 60.6923 185.207 60.8193C182.57 65.1109 181.062 70.0186 180.721 75.4106C180.709 75.6096 180.716 75.9332 180.726 76.3072C180.74 76.8611 180.767 77.8632 180.671 78.1318L180.525 78.2037C172.687 77.2591 162.551 78.6089 157.523 85.226C155.202 88.2804 154.353 91.6177 155.001 95.1493C156.089 101.093 161.239 106.187 165.696 108.973C168.374 110.649 171.318 111.774 174.166 112.864C178.055 114.351 181.731 115.756 184.811 118.443C185.241 118.817 186.502 120.019 186.629 120.232C186.674 120.311 186.701 120.369 186.713 120.429C183.502 120.654 180.666 122.788 179.58 123.708C176.099 126.665 174.819 130.508 176.068 134.253C177.506 138.568 181.944 141.675 187.108 141.985C189.091 142.104 191.014 141.644 192.968 141.107C193.025 141.201 193.047 141.299 193.047 141.424C193.047 142.337 192.062 145.233 191.661 146.161C187.976 154.737 180.508 155.31 172.601 155.914C166.288 156.396 159.757 156.897 155.312 161.824C152.38 165.073 151.58 168.849 153.056 172.457C154.85 176.842 159.626 180.002 164.938 180.323C172.922 180.805 178.715 177.087 184.843 173.152C187.504 171.443 190.256 169.676 193.198 168.292C195.734 167.101 200.724 165.008 205.622 164.394C205.718 164.382 205.814 164.368 205.912 164.356C206.351 164.296 206.801 164.234 207.219 164.305C206.938 164.905 206.617 165.492 206.305 166.065C205.857 166.89 205.392 167.743 205.034 168.643C203.486 172.529 203.176 176.334 204.087 180.278C204.85 183.579 206.447 186.945 209.108 190.865C210.966 193.603 213.128 196.269 215.416 199.091C221.704 206.849 228.209 214.874 228.413 224.708C228.652 236.298 219.506 246.816 212.603 253.718C212.344 253.977 211.915 254.353 211.417 254.79C210.254 255.809 208.935 256.967 208.614 257.624C208.108 258.655 208.434 259.434 208.909 259.817C209.206 260.057 209.578 260.177 209.968 260.177C210.453 260.177 210.968 259.997 211.419 259.642C213.088 258.333 215.178 256.13 216.859 254.361L217.439 253.752C228.626 242.021 233.227 231.22 231.503 220.731C230.882 216.945 229.405 213.121 226.991 209.041C224.922 205.543 222.476 202.335 219.726 198.803C218.897 197.739 218.024 196.66 217.18 195.615C210.472 187.314 203.536 178.731 209.472 167.446C209.822 166.78 210.757 165.006 211.213 164.476C211.414 164.243 211.702 164.241 212.157 164.262C215.555 164.44 220.4 166.276 222.987 167.355C226.641 168.88 230.323 170.915 234.224 173.073C244.234 178.611 254.584 184.337 265.492 181.814C273.128 180.05 278.727 174.677 281.256 166.691C281.302 166.545 281.326 166.384 281.35 166.211C281.409 165.78 281.467 165.49 281.709 165.382C281.925 165.284 282.594 165.312 283.083 165.332C283.419 165.346 283.737 165.358 283.96 165.341C294.574 164.521 301.57 157.998 304.191 146.47C305.809 139.352 305.298 132.589 302.675 126.37L302.673 126.374ZM272.078 140.853C264.581 135.487 254.227 134.771 241.299 138.724C240.815 138.873 240.242 139.096 239.638 139.333C238.731 139.688 237.796 140.055 237.139 140.167L237.113 140.172C236.996 140.191 236.924 140.203 236.857 140.184C235.341 139.359 233.85 138.427 232.407 137.525C231.429 136.914 230.417 136.281 229.405 135.686C223.524 132.232 217.95 129.249 212.838 126.823C212.721 126.768 212.445 126.653 212.097 126.506C211.438 126.231 209.985 125.624 209.547 125.353C210.151 124.449 210.76 123.548 211.369 122.646C212.874 120.417 214.433 118.108 215.888 115.794C217.319 113.519 218.712 111.15 220.06 108.858C221.17 106.971 222.316 105.02 223.478 103.131C223.673 102.817 223.912 102.395 224.169 101.946C224.723 100.975 225.351 99.8748 225.778 99.3665C225.907 99.2107 226.037 99.1172 226.125 99.1124L230.719 100.606C237.938 102.325 246.943 103.665 252.529 98.7288C257.243 94.5643 256.641 87.1704 253.335 82.4257C253.212 82.2507 252.975 81.9726 252.699 81.6513C252.359 81.2533 251.8 80.5988 251.719 80.4022C251.812 79.8124 251.978 79.1915 252.136 78.5897C252.316 77.9064 252.503 77.2015 252.594 76.5206C252.661 76.0243 252.678 75.5113 252.695 75.015C252.716 74.4084 252.738 73.7827 252.848 73.1953L252.853 73.1713V73.1473C252.802 70.606 252.692 67.9136 251.92 65.3818C252.002 65.2475 252.476 64.9191 255.169 65.0485L255.298 65.0557C272.251 65.8014 285.936 80.769 285.802 98.4195C285.737 102.104 285.293 105.243 284.445 108.002C283.877 107.789 283.313 107.54 282.764 107.297C282.162 107.031 281.541 106.758 280.913 106.528C276.183 104.802 270.777 103.929 266.087 104.135C260.084 104.399 255.507 106.42 252.848 109.978C250.175 113.555 249.762 118.137 251.743 122.232C253.713 126.307 257.691 128.918 262.124 129.045C271.378 129.311 281.093 122.268 285.15 115.305C285.222 115.18 285.341 114.922 285.495 114.593C285.713 114.123 286.157 113.162 286.332 112.987C286.435 112.977 286.684 113.075 287.319 113.497L287.401 113.553C298.271 120.685 303.395 132.205 301.11 144.365C300.486 147.683 299.149 151.309 297.621 153.824C294.394 159.134 288.47 162.205 282.138 161.867C282.045 161.599 282.095 161.318 282.148 161.026C282.181 160.846 282.215 160.661 282.21 160.484C282.009 152.354 278.41 145.382 272.081 140.851L272.078 140.853ZM182.668 170.333C177.983 173.382 173.558 176.262 167.561 176.837C165.636 177.022 162.941 176.655 161.155 175.967C158.559 174.965 156.667 172.872 156.094 170.366C155.581 168.125 156.216 165.912 157.883 164.133C161.479 160.29 167.254 159.774 173.368 159.23C179.268 158.705 185.37 158.163 189.781 154.485C193.131 151.692 195.651 146.919 196.521 141.711C196.598 141.256 196.602 140.889 196.607 140.565C196.617 139.822 196.624 139.414 197.525 138.774C200.745 136.49 202.68 134.667 204.922 131.814C205.26 131.385 205.598 130.879 205.926 130.393C206.36 129.745 206.811 129.076 207.259 128.575C207.319 128.508 207.425 128.439 207.525 128.369C207.571 128.338 207.617 128.309 207.66 128.276C216.602 132.045 225.195 137.19 232.783 141.738L232.831 141.831C232.817 141.896 232.793 141.992 232.771 142.021C232.728 142.049 232.57 142.083 232.476 142.102C232.332 142.131 232.184 142.162 232.059 142.222C224.001 146.096 217.379 151.201 211.817 157.827C211.493 158.213 211.189 158.626 210.896 159.024C210.522 159.532 210.136 160.055 209.71 160.52C209.021 160.692 208.317 160.678 207.573 160.661C207.077 160.652 206.562 160.64 206.056 160.69C199.297 161.376 192.531 164.504 188.048 167.007C186.171 168.055 184.392 169.213 182.673 170.333H182.668ZM189.146 61.354C189.415 61.2677 189.976 61.9653 190.187 62.2267L190.287 62.3513C194.131 67.0313 196.554 72.9987 196.773 78.314C196.818 79.4 196.753 81.5746 196.53 82.0373L192.174 80.4693C190.352 79.8915 188.47 79.5079 186.653 79.1363C186.288 79.062 185.921 78.9877 185.557 78.9109C185.454 78.8894 185.358 78.8702 185.269 78.8534C184.346 78.6688 184.25 78.6496 184.19 77.693C184.003 74.7177 184.811 70.0617 186.073 66.8635C186.514 65.7438 188.664 61.5865 189.149 61.3516L189.146 61.354ZM237.197 83.1809C237.655 82.6918 238.432 82.1668 239.026 81.8263C240.834 80.7906 242.498 80.3782 244.258 80.5221C245.092 80.5916 247.092 81.119 247.271 81.4955C247.401 81.764 247.048 82.1692 246.789 82.4641C246.715 82.548 246.648 82.6271 246.593 82.6966C244.881 84.9047 242.285 85.6767 239.65 84.7609C238.803 84.4684 237.307 83.5837 237.195 83.1809H237.197ZM193.514 123.819C193.591 123.819 193.742 123.867 193.836 123.893C193.956 123.929 194.078 123.965 194.195 123.979C196.451 124.286 198.772 124.977 200.323 125.471C200.824 125.631 201.328 125.825 201.815 126.015C202.572 126.31 203.354 126.612 204.171 126.801C204.167 126.818 204.164 126.835 204.162 126.852C204.138 126.986 203.944 127.377 203.15 128.479L203.131 128.508C202.109 129.928 198.23 134.339 197.01 134.991C196.943 135.027 196.842 135.073 196.751 135.109C196.442 131.98 195.761 129.086 194.725 126.497C194.605 126.195 194.38 125.773 194.162 125.365C193.898 124.871 193.625 124.358 193.558 124.102C193.514 123.941 193.512 123.857 193.514 123.816V123.819ZM276.706 161.371C276.523 161.301 276.336 161.227 276.169 161.193C263.941 158.659 252.11 150.469 241.671 143.243L240.805 142.644C240.776 142.625 240.745 142.606 240.714 142.589C241.067 142.474 241.421 142.354 241.781 142.232C243.157 141.769 244.579 141.292 245.955 140.958C253.301 139.18 263.622 138.34 271.088 144.454C276.219 148.654 278.959 154.859 278.626 161.505C278.425 161.503 278.216 161.512 278.012 161.522C277.701 161.539 277.406 161.553 277.147 161.52C277.044 161.505 276.873 161.438 276.708 161.376L276.706 161.371ZM252.11 93.2936C250.108 99.3329 241.632 98.9421 238.082 98.4938C235.08 98.115 231.968 97.3814 227.993 96.1131C227.89 95.998 227.947 95.6 228.715 94.3941C228.777 94.2958 228.832 94.2094 228.873 94.1423C230.002 92.2507 231.282 90.2655 232.385 88.6928C232.726 88.2085 233.097 87.729 233.459 87.2663C233.833 86.7868 234.219 86.2905 234.574 85.7822C234.874 85.6983 234.984 85.8182 235.195 86.0411C235.286 86.1394 235.392 86.2497 235.521 86.3432C240.302 89.7836 245.718 89.2274 249.321 84.9287C249.472 84.7489 249.585 84.5379 249.686 84.3533C249.774 84.1879 249.909 83.9361 249.985 83.9289C249.993 83.9289 250.1 83.9193 250.376 84.2334C252.177 86.2833 253.004 90.6012 252.112 93.2936H252.11ZM249.134 76.113C249.034 76.8179 248.858 77.5204 248.609 78.2061C248.326 78.1509 247.641 77.868 247.209 77.6906C246.71 77.4844 246.396 77.3574 246.219 77.319C243.375 76.71 240.29 77.2039 237.528 78.7048C237.214 78.875 236.845 79.1459 236.485 79.4048C236.032 79.7333 235.564 80.0737 235.229 80.2056C235.157 80.2344 235.116 80.2416 235.097 80.244C235.068 80.1936 235.032 80.0641 235.015 80.0042C234.274 77.3693 234.692 73.3271 240.892 69.0452C242.939 67.6307 245.315 66.5734 248.151 65.8157L248.437 65.8829L248.542 66.0435C248.595 66.547 248.727 67.0313 248.854 67.5012C248.962 67.8944 249.062 68.266 249.122 68.6496C249.472 70.9105 249.477 73.6988 249.134 76.1107V76.113ZM246.957 62.6582C246.84 62.7421 246.176 62.9052 245.778 63.0035C245.435 63.0874 245.138 63.1617 244.977 63.2192C241.527 64.4923 239.055 65.9069 236.71 67.9519C231.795 72.2411 230.292 76.6309 231.978 81.7688C232.018 81.8934 232.088 82.0397 232.162 82.1931C232.289 82.4569 232.479 82.8477 232.44 83.0466C231.911 83.7947 231.337 84.5379 230.781 85.2571C230.141 86.0867 229.477 86.945 228.875 87.8225C228.25 88.7311 227.641 89.7717 227.053 90.7786C226.308 92.0541 225.536 93.3727 224.723 94.4372C224.641 94.5427 224.449 94.6937 224.375 94.7225L200.019 83.3487C199.968 83.0179 200.093 81.8407 200.165 81.1886C200.211 80.757 200.249 80.4142 200.254 80.2344C200.472 72.6774 197.355 64.8855 191.707 58.851C191.424 58.4122 192.217 57.7146 192.694 57.295C192.778 57.2207 192.855 57.1535 192.922 57.0936C198.844 51.6105 208.427 48.3259 218.554 48.3043C218.588 48.3043 218.621 48.3043 218.655 48.3043C229.077 48.3043 238.216 51.6824 243.735 57.5779C244.598 58.4985 246.991 61.7735 246.986 62.5192C246.986 62.6414 246.981 62.6438 246.96 62.6606L246.957 62.6582ZM185.538 82.3825C185.696 82.4353 185.83 82.4808 185.941 82.5C188.82 83.0347 191.656 83.9553 194.399 84.8448C194.852 84.991 195.305 85.1397 195.758 85.2835C195.866 85.6911 194.986 87.5707 194.394 88.4506C193.196 90.2272 191.711 91.1718 190.227 91.1334C188.808 91.0879 187.523 90.1481 186.509 88.4147C185.519 86.7196 184.826 84.3509 184.694 82.2123C184.84 82.1476 185.293 82.2986 185.538 82.3801V82.3825ZM198.276 88.6808C198.336 88.5561 198.403 88.3619 198.489 88.1126C198.607 87.7745 198.954 86.7652 199.168 86.6573L222.541 97.868C222.479 98.2349 221.985 99.0572 221.786 99.3881C221.723 99.4912 221.671 99.5799 221.63 99.6518C219.412 103.521 216.986 107.377 214.639 111.105L213.486 112.941C212.903 113.869 212.32 114.828 211.707 115.84C210.103 118.484 208.444 121.217 206.701 123.497C206.636 123.581 206.583 123.658 206.535 123.728C206.305 124.058 206.279 124.092 205.826 123.965C205.154 123.778 204.38 123.454 203.632 123.14C202.977 122.864 202.299 122.579 201.673 122.38C199.182 121.584 196.379 120.92 193.987 120.556C193.711 120.513 193.349 120.498 192.968 120.484C192.323 120.457 191.592 120.429 191.268 120.258C191.062 120.151 190.434 119.343 190.019 118.808C189.743 118.455 189.506 118.149 189.35 117.978C186.401 114.773 182.328 112.164 177.573 110.429C177.017 110.225 176.478 110.033 175.953 109.844C171.783 108.348 168.489 107.168 164.751 104.128C160.978 101.059 158.65 97.2687 158.365 93.7276C158.156 91.1287 159.026 88.712 160.951 86.5518C164.509 82.5576 171.843 81.0663 177.535 81.3636C178.166 81.3972 178.844 81.4883 179.499 81.577C179.997 81.6441 180.51 81.7136 181.009 81.7592L181.668 85.4418C182.625 90.3854 185.859 94.0464 189.717 94.5475C193.148 94.9934 196.267 92.8573 198.283 88.6856L198.276 88.6808ZM188.798 123.555C188.842 123.555 188.882 123.555 188.926 123.555C189.038 123.555 189.23 123.617 189.319 123.675C189.52 123.847 190.534 125.634 190.776 126.125C191.687 127.993 192.359 129.999 192.615 131.625L192.625 131.661C193.056 133.001 193.126 134.454 193.191 135.859C193.212 136.326 193.234 136.808 193.27 137.283C192.886 137.477 191.565 138.026 191.318 138.098C186.823 139.41 180.995 137.95 179.422 133.303C178.633 130.978 179.515 129.052 180.395 127.849C182.225 125.341 185.739 123.548 188.798 123.548V123.555ZM214.083 160.601L214.131 160.525C215.32 158.638 217.943 156.111 219.937 154.322C224.996 149.784 230.563 146.362 236.483 144.152C237.955 144.866 239.343 145.816 240.685 146.736C241.198 147.087 241.728 147.451 242.256 147.794C243.354 148.513 244.447 149.235 245.538 149.956C252.879 154.811 260.47 159.829 269.132 162.812C271.227 163.533 273.212 163.975 275.317 164.444C275.833 164.56 276.356 164.675 276.883 164.797C277.468 164.931 277.919 165.099 278.072 165.202L278.06 165.238C277.252 167.537 276.418 169.918 274.943 171.85C271.671 176.147 267.216 178.503 261.702 178.856C257.12 179.151 251.86 178.022 246.49 175.598C242.982 174.013 239.472 172.078 236.077 170.206C229.417 166.535 222.531 162.74 215.061 161.191C214.749 161.126 214.397 161.098 214.056 161.066C213.999 161.062 213.944 161.057 213.888 161.052C213.893 160.894 213.965 160.783 214.083 160.599V160.601ZM283.188 111.256C282.316 113.437 281.028 115.54 279.46 117.341C275.157 122.287 265.346 127.535 259.146 124.84C256.928 123.876 255.202 122.025 254.414 119.76C253.642 117.542 253.824 115.183 254.929 113.114C257.264 108.741 262.601 107.698 266.665 107.592C266.917 107.585 267.171 107.583 267.425 107.583C272.443 107.583 277.454 108.827 280.561 110.038C281.155 110.27 282.786 110.992 283.188 111.253V111.256ZM142.5 70.4693C144.538 72.3106 147.103 75.1277 145.869 78.3403C145.214 80.0426 143.656 81.3852 141.795 81.8407C140.146 82.2435 138.518 81.8719 137.324 80.817C134.636 78.4386 135.749 71.6081 136.669 68.8558C136.991 67.8968 137.293 67.2782 137.432 67.1464L137.573 67.1272C139.635 68.0167 141.218 69.3137 142.495 70.4693H142.5ZM98.9015 112.644C98.8535 111.92 101.46 110.086 102.498 109.592C104.222 108.774 106.801 108.295 109.388 108.295C109.662 108.295 109.935 108.3 110.206 108.312C113.433 108.441 115.962 109.295 117.326 110.719C118.271 111.704 118.647 112.92 118.446 114.327C118.082 116.873 115.941 119.326 114.015 120.431C107.034 124.44 101.479 116.964 99.9444 114.579C99.5416 113.953 98.9183 112.862 98.8991 112.646L98.9015 112.644Z" fill="#D9E8A9"/>
<path d="M210.556 247.98C210.738 247.905 211.007 247.658 211.436 247.224L211.551 247.109C213.462 245.23 216.698 240.854 217.847 238.243L217.871 238.19C218.122 237.617 218.506 236.752 217.664 236.189C217.206 235.882 216.681 235.951 216.228 236.38C215.859 236.73 215.317 237.771 214.792 238.778C214.457 239.42 214.142 240.029 213.915 240.372C213.061 241.662 211.894 243.113 210.76 244.491C210.647 244.628 210.41 244.863 210.158 245.112C209.59 245.673 209.211 246.059 209.113 246.294C208.897 246.798 208.997 247.385 209.359 247.757C209.563 247.965 209.825 248.071 210.105 248.071C210.251 248.071 210.402 248.042 210.553 247.98H210.556Z" fill="#D9E8A9"/>
<defs>
<linearGradient id="paint0_linear_964_17900" x1="0" y1="0" x2="370.388" y2="320.71" gradientUnits="userSpaceOnUse">
<stop offset="0.243617" stop-color="#ACCA00"/>
<stop offset="1" stop-color="#7D9204"/>
</linearGradient>
</defs>
</svg>
