<svg width="384" height="305" viewBox="0 0 384 305" fill="none" xmlns="http://www.w3.org/2000/svg">
<rect width="383.995" height="304.995" fill="url(#paint0_linear_964_17891)"/>
<path d="M190.498 54C136.186 54 92 98.186 92 152.498C92 206.809 136.186 250.995 190.498 250.995C244.809 250.995 288.995 206.809 288.995 152.498C288.995 98.186 244.814 54 190.498 54ZM257.193 210.735C257.082 213.125 256.05 215.325 254.28 216.94C252.511 218.549 250.218 219.378 247.839 219.266C245.449 219.155 243.248 218.122 241.634 216.353C240.025 214.584 239.196 212.296 239.308 209.911C239.531 205.122 243.496 201.371 248.246 201.371C248.386 201.371 248.522 201.371 248.663 201.38C253.592 201.608 257.421 205.806 257.193 210.735ZM110.758 124.758C110.981 119.964 114.946 116.217 119.696 116.217C119.837 116.217 119.973 116.217 120.113 116.227C125.043 116.455 128.872 120.652 128.644 125.582C128.532 127.971 127.5 130.172 125.731 131.786C123.962 133.395 121.674 134.219 119.284 134.113C114.355 133.885 110.526 129.687 110.753 124.758H110.758ZM172.292 82.1906C172.292 87.125 168.274 91.1432 163.339 91.1432C158.405 91.1432 154.387 87.125 154.387 82.1906C154.387 77.2563 158.405 73.2381 163.339 73.2381C168.274 73.2381 172.292 77.2563 172.292 82.1906ZM176.17 82.2391C180.842 81.7011 185.626 81.4151 190.498 81.4151C199.678 81.4151 208.558 82.4088 216.958 84.2458C217.06 84.4882 217.166 84.7257 217.268 84.968C219.619 90.5955 221.64 96.8094 223.307 103.469C219.221 104.507 215.911 107.517 214.447 111.419C206.706 110.599 198.679 110.173 190.498 110.173C188.408 110.173 186.329 110.202 184.264 110.255L171.957 91.6861C174.531 89.3449 176.155 85.9762 176.17 82.2343V82.2391ZM263.112 165.061C260.722 164.95 258.522 163.917 256.907 162.148C255.298 160.379 254.469 158.091 254.581 155.706C254.804 150.913 258.769 147.166 263.519 147.166C263.659 147.166 263.795 147.166 263.936 147.175C268.865 147.403 272.694 151.601 272.467 156.53C272.239 161.46 268.032 165.289 263.112 165.061ZM250.708 155.527C250.669 156.366 250.713 157.19 250.834 157.994L239.72 161.411L232.381 127.283C235.449 125.684 237.791 122.882 238.779 119.503C245.72 121.205 252.196 123.284 258.032 125.727C258.274 125.829 258.512 125.936 258.754 126.037C259.985 131.66 260.834 137.496 261.26 143.497C255.497 144.534 250.989 149.439 250.708 155.527ZM238.847 201.608L228.804 194.803C229.027 193.693 229.245 192.578 229.449 191.449C230.631 191.231 231.804 191.008 232.968 190.77L239.632 200.828C239.361 201.075 239.099 201.337 238.847 201.608ZM220.225 188.991L202.436 176.937L220.181 171.479L227.04 181.832C226.754 183.95 226.439 186.039 226.095 188.099C224.161 188.424 222.202 188.72 220.225 188.991ZM225.377 192.147C225.358 192.244 225.338 192.345 225.319 192.442L224.975 192.21C225.106 192.19 225.241 192.171 225.377 192.147ZM153.388 197.483C150.999 197.372 148.798 196.339 147.184 194.575C145.57 192.811 144.746 190.518 144.857 188.133C144.969 185.744 146.001 183.543 147.771 181.929C149.433 180.412 151.556 179.593 153.791 179.593C153.931 179.593 154.072 179.593 154.212 179.602C159.142 179.83 162.971 184.028 162.743 188.957C162.632 191.347 161.599 193.548 159.83 195.162C158.061 196.771 155.768 197.6 153.383 197.488L153.388 197.483ZM155.642 92.4471C155.957 92.6846 156.282 92.9075 156.621 93.116C154.576 99.4608 152.875 106.315 151.556 113.556C144.189 114.899 137.228 116.639 130.791 118.733C130.554 118.321 130.292 117.923 130.011 117.545L155.642 92.4471ZM168.729 93.8285L179.723 110.42C173.906 110.687 168.201 111.167 162.661 111.855L164.154 94.9918C165.777 94.89 167.324 94.4828 168.729 93.8285ZM226.468 106.954C231.402 106.954 235.42 110.973 235.42 115.907C235.42 120.841 231.402 124.86 226.468 124.86C221.533 124.86 217.515 120.841 217.515 115.907C217.515 110.973 221.533 106.954 226.468 106.954ZM230.651 187.275C230.481 187.309 230.312 187.338 230.142 187.372C230.181 187.14 230.215 186.907 230.249 186.674L230.646 187.275H230.651ZM215.63 122.756L201.966 136.968L186.799 114.08C188.03 114.06 189.262 114.046 190.498 114.046C198.413 114.046 206.168 114.458 213.652 115.233C213.642 115.456 213.633 115.679 213.633 115.902C213.633 118.423 214.365 120.769 215.625 122.756H215.63ZM217.951 168.11L198.321 174.149L182.141 163.185L201.408 143.148L217.951 168.11ZM199.213 139.832L178.884 160.975L159.471 147.82L162.307 115.805C168.739 114.981 175.404 114.443 182.224 114.201L199.208 139.832H199.213ZM161.924 178.619C160.499 177.45 158.817 176.578 156.965 176.108L159.079 152.241L176.155 163.816L161.919 178.619H161.924ZM160.291 94.6525L158.72 112.383C157.683 112.533 156.65 112.688 155.623 112.853C156.849 106.421 158.381 100.314 160.198 94.6283C160.228 94.6379 160.261 94.6428 160.291 94.6476V94.6525ZM158.366 116.348L155.797 145.329L152.244 142.92C152.618 133.904 153.514 125.16 154.896 116.896C156.045 116.702 157.198 116.518 158.366 116.343V116.348ZM155.41 149.749L153.165 175.066C152.433 167.766 152.051 160.204 152.051 152.498C152.051 150.83 152.07 149.168 152.104 147.51L155.41 149.749ZM132.211 122.344C138.013 120.468 144.256 118.883 150.853 117.628C149.685 124.913 148.89 132.537 148.483 140.38L131.901 129.144C132.25 128.078 132.463 126.944 132.517 125.771C132.57 124.593 132.459 123.449 132.211 122.349V122.344ZM179.417 166.021L193.566 175.608L165.85 184.134C165.511 183.209 165.06 182.327 164.527 181.512L179.422 166.021H179.417ZM166.611 187.954L197.681 178.4L214.36 189.704C206.658 190.528 198.66 190.949 190.498 190.949C182.335 190.949 174.294 190.513 166.572 189.684C166.587 189.5 166.601 189.316 166.611 189.132C166.631 188.734 166.626 188.342 166.611 187.954ZM224.049 170.291L228.363 168.963C228.193 171.295 227.99 173.602 227.752 175.885L224.044 170.291H224.049ZM221.815 166.918L204.161 140.278L218.184 125.693C220.419 127.588 223.312 128.737 226.468 128.737C226.88 128.737 227.287 128.718 227.694 128.679C228.518 136.366 228.949 144.35 228.949 152.502C228.949 156.661 228.838 160.776 228.62 164.829L221.815 166.922V166.918ZM242.865 198.685L237.039 189.893C238.595 189.539 240.127 189.166 241.634 188.773L243.689 198.332C243.408 198.438 243.137 198.555 242.865 198.681V198.685ZM234.747 186.432L231.077 180.892C231.62 176.602 232.042 172.206 232.333 167.737L236.816 166.355L240.82 184.978C238.838 185.492 236.811 185.976 234.747 186.427V186.432ZM232.774 147.578L235.997 162.56L232.565 163.617C232.74 159.952 232.827 156.244 232.827 152.502C232.827 150.854 232.808 149.216 232.774 147.583V147.578ZM239.288 115.64C239.153 108.932 233.845 103.474 227.2 103.096C225.639 96.7707 223.778 90.8184 221.616 85.3655C230.922 87.8084 239.574 91.3128 247.305 95.6849C251.682 103.416 255.182 112.068 257.625 121.374C251.997 119.14 245.842 117.225 239.283 115.636L239.288 115.64ZM152.928 89.6745L127.253 114.812C126.744 114.438 126.211 114.109 125.648 113.813C127.83 107.362 130.525 101.283 133.685 95.6946C139.254 92.544 145.308 89.849 151.74 87.6727C152.075 88.3804 152.472 89.0493 152.928 89.6794V89.6745ZM120.254 137.99C124.296 137.821 127.897 135.751 130.137 132.629L148.294 144.931C148.212 147.437 148.173 149.963 148.173 152.502C148.173 160.699 148.604 168.735 149.423 176.491C145.517 177.916 142.468 181.187 141.392 185.293C134.766 183.63 128.576 181.619 122.973 179.273C122.731 179.171 122.493 179.064 122.251 178.963C120.409 170.563 119.42 161.683 119.42 152.502C119.42 147.568 119.711 142.721 120.263 137.99H120.254ZM140.985 189.175C141.125 192.152 142.288 194.958 144.319 197.188C146.627 199.718 149.787 201.201 153.209 201.361C153.359 201.366 153.514 201.371 153.665 201.371C155.25 207.9 157.159 214.031 159.384 219.635C150.078 217.192 141.426 213.687 133.695 209.315C129.318 201.584 125.818 192.932 123.375 183.626C128.794 185.778 134.708 187.629 140.989 189.18L140.985 189.175ZM157.518 200.823C159.326 200.275 161.008 199.33 162.443 198.021C163.848 196.737 164.934 195.191 165.642 193.485C173.659 194.367 181.996 194.827 190.498 194.827C200.39 194.827 210.06 194.212 219.27 193.029L224.476 196.558C222.614 205.113 220.201 213.028 217.268 220.032C217.166 220.274 217.06 220.512 216.958 220.754C208.558 222.596 199.678 223.585 190.498 223.585C181.317 223.585 172.437 222.591 164.037 220.754C163.936 220.512 163.829 220.274 163.727 220.032C161.289 214.211 159.219 207.749 157.518 200.823ZM227.927 198.894L236.661 204.812C235.949 206.31 235.512 207.972 235.43 209.727C235.348 211.477 235.624 213.164 236.191 214.71C231.552 216.639 226.686 218.297 221.611 219.625C224.117 213.314 226.225 206.344 227.922 198.889L227.927 198.894ZM248.842 197.508C248.381 197.488 247.931 197.493 247.48 197.517L245.381 187.755C249.685 186.524 253.781 185.143 257.63 183.616C256.292 188.72 254.629 193.615 252.681 198.278C251.479 197.832 250.185 197.561 248.837 197.503L248.842 197.508ZM244.562 183.96L240.534 165.221L251.973 161.702C253.626 165.105 256.743 167.693 260.538 168.6C260.082 172.123 259.491 175.584 258.749 178.963C258.507 179.064 258.269 179.171 258.027 179.273C253.844 181.023 249.336 182.588 244.562 183.96ZM264.425 168.915C270.828 168.469 276.039 163.273 276.339 156.71C276.65 149.987 271.701 144.224 265.138 143.395C264.779 138.179 264.11 133.051 263.146 128.044C277.367 134.99 285.122 143.564 285.122 152.502C285.122 161.44 277.367 170.01 263.146 176.961C263.659 174.314 264.081 171.629 264.425 168.919V168.915ZM262.128 123.284C260.179 114.996 257.402 107.085 253.844 99.7371C268.424 109.625 278.899 122.867 283.091 137.825C278.555 132.436 271.478 127.496 262.128 123.284ZM279.417 120.138C274.614 112.499 268.075 105.466 259.947 99.3202C256.849 96.9791 253.582 94.8173 250.17 92.8348C248.188 89.4225 246.026 86.1507 243.685 83.0583C237.539 74.9297 230.505 68.391 222.866 63.5875C249.05 73.146 269.864 93.9594 279.422 120.143L279.417 120.138ZM243.258 89.1559C235.91 85.5981 227.999 82.8208 219.711 80.8722C215.494 71.5222 210.56 64.4455 205.17 59.9086C220.128 64.1013 233.37 74.5759 243.258 89.1559ZM190.498 57.8777C199.436 57.8777 208.005 65.633 214.956 79.8543C207.06 78.3275 198.859 77.5374 190.498 77.5374C185.461 77.5374 180.484 77.8331 175.598 78.3954C174.745 75.6471 172.99 73.2962 170.683 71.6822C176.654 62.6957 183.46 57.8825 190.498 57.8825V57.8777ZM167.198 69.9566C165.981 69.5737 164.682 69.3653 163.339 69.3653C156.263 69.3653 150.509 75.1187 150.509 82.1955C150.509 82.7771 150.553 83.3539 150.625 83.9162C146.171 85.4139 141.862 87.1637 137.732 89.1607C147.62 74.5807 160.863 64.1062 175.821 59.9134C172.781 62.4679 169.893 65.8366 167.193 69.9614L167.198 69.9566ZM158.138 63.5778C150.499 68.3813 143.466 74.92 137.32 83.0486C134.979 86.1459 132.817 89.4128 130.835 92.8251C127.422 94.8076 124.151 96.9694 121.058 99.3105C112.93 105.457 106.391 112.495 101.588 120.129C111.146 93.9448 131.959 73.1314 158.143 63.573L158.138 63.5778ZM127.156 99.7371C125.169 103.838 123.428 108.118 121.936 112.538C121.398 112.441 120.85 112.378 120.288 112.354C113.221 112.034 107.205 117.511 106.881 124.578C106.803 126.275 107.065 127.913 107.598 129.425C103.638 132.062 100.39 134.874 97.9037 137.825C102.096 122.867 112.571 109.625 127.151 99.7371H127.156ZM109.43 132.852C111.131 135.121 113.565 136.817 116.4 137.569C115.833 142.469 115.537 147.452 115.537 152.498C115.537 160.859 116.328 169.055 117.854 176.956C103.633 170.01 95.8777 161.436 95.8777 152.498C95.8777 145.527 100.604 138.78 109.43 132.847V132.852ZM118.872 181.711C120.821 189.999 123.598 197.91 127.156 205.258C112.576 195.37 102.101 182.128 97.9086 167.17C102.445 172.56 109.522 177.499 118.872 181.711ZM101.578 184.862C106.381 192.501 112.92 199.534 121.049 205.68C124.146 208.021 127.413 210.183 130.825 212.165C132.808 215.578 134.969 218.849 137.311 221.942C143.457 230.07 150.49 236.609 158.129 241.412C131.945 231.854 111.131 211.041 101.573 184.857L101.578 184.862ZM137.737 215.839C145.085 219.397 152.996 222.174 161.284 224.123C165.501 233.473 170.436 240.55 175.825 245.087C160.867 240.894 147.625 230.419 137.737 215.839ZM190.498 247.122C181.56 247.122 172.99 239.367 166.044 225.146C173.94 226.672 182.141 227.463 190.498 227.463C198.854 227.463 207.055 226.672 214.951 225.146C208.005 239.367 199.431 247.122 190.498 247.122ZM219.711 224.128C226.095 222.625 232.25 220.623 238.101 218.161C238.687 218.917 239.351 219.61 240.088 220.221C230.617 232.518 218.582 241.33 205.165 245.091C210.555 240.555 215.489 233.478 219.706 224.128H219.711ZM222.862 241.417C230.413 236.667 237.374 230.221 243.466 222.223C244.77 222.746 246.176 223.066 247.659 223.139C247.858 223.149 248.062 223.154 248.26 223.154C255.066 223.154 260.751 217.783 261.071 210.915C261.158 209.015 260.824 207.187 260.15 205.53C268.187 199.417 274.657 192.438 279.422 184.862C269.864 211.046 249.05 231.859 222.866 241.417H222.862ZM258.134 202.156C257.538 201.434 256.859 200.779 256.117 200.203C258.599 194.323 260.615 188.138 262.123 181.716C271.473 177.499 278.55 172.564 283.087 167.175C279.316 180.62 270.47 192.675 258.134 202.161V202.156Z" fill="#7FE3EF"/>
<defs>
<linearGradient id="paint0_linear_964_17891" x1="0" y1="0" x2="388.948" y2="298.554" gradientUnits="userSpaceOnUse">
<stop offset="0.24" stop-color="#0D9FBF"/>
<stop offset="1" stop-color="#007B96"/>
</linearGradient>
</defs>
</svg>
