<svg width="384" height="305" viewBox="0 0 384 305" fill="none" xmlns="http://www.w3.org/2000/svg">
<rect width="383.995" height="304.995" fill="url(#paint0_linear_964_17934)"/>
<path d="M239.988 240.293H144.007C135.454 240.293 128.498 233.311 128.498 224.727V80.2677C128.498 71.684 135.454 64.7019 144.007 64.7019H239.988C248.541 64.7019 255.498 71.684 255.498 80.2677V224.727C255.498 233.311 248.541 240.293 239.988 240.293ZM144.007 68.2416C137.399 68.2416 132.024 73.6352 132.024 80.2677V224.727C132.024 231.36 137.399 236.754 144.007 236.754H239.988C246.596 236.754 251.971 231.36 251.971 224.727V80.2677C251.971 73.6352 246.596 68.2416 239.988 68.2416H144.007Z" fill="#DFC2FF"/>
<path d="M175.613 102.426L166.694 95.1167C165.539 94.1698 163.877 94.1698 162.717 95.1167L153.799 102.426C152.018 103.886 149.342 102.612 149.342 100.302V66.4717H180.07V100.307C180.07 102.616 177.398 103.891 175.613 102.431V102.426Z" fill="#DFC2FF"/>
<path d="M233.556 205.175H184.135C183.16 205.175 182.371 204.383 182.371 203.405C182.371 202.427 183.16 201.635 184.135 201.635H233.556C234.53 201.635 235.319 202.427 235.319 203.405C235.319 204.383 234.53 205.175 233.556 205.175Z" fill="#DFC2FF"/>
<path d="M233.556 178.22H151.131C150.157 178.22 149.368 177.428 149.368 176.45C149.368 175.472 150.157 174.68 151.131 174.68H233.556C234.53 174.68 235.319 175.472 235.319 176.45C235.319 177.428 234.53 178.22 233.556 178.22Z" fill="#DFC2FF"/>
<path d="M233.556 151.261H151.131C150.157 151.261 149.368 150.469 149.368 149.491C149.368 148.513 150.157 147.721 151.131 147.721H233.556C234.53 147.721 235.319 148.513 235.319 149.491C235.319 150.469 234.53 151.261 233.556 151.261Z" fill="#DFC2FF"/>
<path d="M233.556 124.306H151.131C150.157 124.306 149.368 123.514 149.368 122.536C149.368 121.558 150.157 120.766 151.131 120.766H233.556C234.53 120.766 235.319 121.558 235.319 122.536C235.319 123.514 234.53 124.306 233.556 124.306Z" fill="#DFC2FF"/>
<defs>
<linearGradient id="paint0_linear_964_17934" x1="3.90983e-05" y1="6.87579" x2="363.727" y2="321.547" gradientUnits="userSpaceOnUse">
<stop offset="0.299821" stop-color="#83559F"/>
<stop offset="1" stop-color="#5C0094"/>
</linearGradient>
</defs>
</svg>
