<svg width="223" height="152" viewBox="0 0 223 152" fill="none" xmlns="http://www.w3.org/2000/svg">
<path opacity="0.4" d="M173.776 0C200.381 0 221.997 19.4535 222.426 43.5997C223.68 54.5566 223.498 70.7193 215.371 89.3799C207.065 108.45 190.842 129.253 161.264 149.465C155.122 153.663 146.408 152.53 141.801 146.932C137.194 141.336 138.44 133.397 144.582 129.199C166.325 114.342 178.793 99.8957 185.911 87.2772C182.031 88.1841 177.966 88.6667 173.776 88.6667C146.903 88.6667 125.119 68.818 125.119 44.3334C125.119 19.8487 146.903 0 173.776 0ZM48.6573 0C75.2612 0 96.8781 19.4535 97.3077 43.5998C98.5616 54.5566 98.3795 70.7193 90.2523 89.3799C81.9461 108.45 65.7232 129.253 36.1453 149.465C30.0029 153.663 21.2891 152.53 16.6824 146.932C12.0755 141.336 13.3203 133.397 19.4626 129.199C41.2051 114.342 53.675 99.8957 60.7922 87.2772C56.9131 88.1841 52.847 88.6667 48.6573 88.6667C21.7846 88.6667 0 68.818 0 44.3334C0 19.8487 21.7846 0 48.6573 0Z" fill="white"/>
</svg>
